<svg width="240" height="72" xmlns="http://www.w3.org/2000/svg">
 <g>
  <title>Layer 1</title>
  <g id="svg_1">
   <circle cx="25.82675" cy="19.73382" r="1.55" fill="#2c2c28" opacity="0.83" id="svg_2"/>
   <circle cx="29.82675" cy="19.73382" r="0.55" fill="#2c2c28" opacity="0.69" id="svg_3"/>
   <circle cx="45.82675" cy="19.73382" r="0.63" fill="#2c2c28" opacity="0.97" id="svg_4"/>
   <circle cx="49.82675" cy="19.73382" r="1.81" fill="#b8896a" opacity="0.86" id="svg_5"/>
   <circle cx="105.82675" cy="19.73382" r="1.38" fill="#2c2c28" opacity="0.98" id="svg_6"/>
   <circle cx="109.82675" cy="19.73382" r="2" fill="#2c2c28" opacity="0.93" id="svg_7"/>
   <circle cx="113.82675" cy="19.73382" r="0.59" fill="#b8896a" opacity="0.69" id="svg_8"/>
   <circle cx="133.82675" cy="19.73382" r="0.84" fill="#2c2c28" opacity="0.74" id="svg_9"/>
   <circle cx="137.82675" cy="19.73382" r="1.54" fill="#2c2c28" opacity="0.67" id="svg_10"/>
   <circle cx="141.82675" cy="19.73382" r="0.95" fill="#2c2c28" opacity="0.7" id="svg_11"/>
   <circle cx="29.82675" cy="23.73382" r="1.05" fill="#2c2c28" opacity="0.9" id="svg_12"/>
   <circle cx="49.82675" cy="23.73382" r="1.8" fill="#b8896a" opacity="0.71" id="svg_13"/>
   <circle cx="109.82675" cy="23.73382" r="0.93" fill="#2c2c28" opacity="0.69" id="svg_14"/>
   <circle cx="113.82675" cy="23.73382" r="0.97" fill="#2c2c28" opacity="0.85" id="svg_15"/>
   <circle cx="133.82675" cy="23.73382" r="0.76" fill="#2c2c28" opacity="0.87" id="svg_16"/>
   <circle cx="137.82675" cy="23.73382" r="1.28" fill="#2c2c28" opacity="0.79" id="svg_17"/>
   <circle cx="181.82675" cy="23.73382" r="1.16" fill="#2c2c28" opacity="0.7" id="svg_18"/>
   <circle cx="29.82675" cy="27.73382" r="1.82" fill="#2c2c28" opacity="0.68" id="svg_19"/>
   <circle cx="61.82675" cy="27.73382" r="1.25" fill="#b8896a" opacity="0.69" id="svg_20"/>
   <circle cx="65.82675" cy="27.73382" r="1.07" fill="#2c2c28" opacity="0.77" id="svg_21"/>
   <circle cx="81.82675" cy="27.73382" r="0.51" fill="#2c2c28" opacity="0.88" id="svg_22"/>
   <circle cx="85.82675" cy="27.73382" r="0.83" fill="#b8896a" opacity="0.9" id="svg_23"/>
   <circle cx="93.82675" cy="27.73382" r="1.66" fill="#2c2c28" opacity="0.79" id="svg_24"/>
   <circle cx="97.82675" cy="27.73382" r="1.46" fill="#2c2c28" opacity="0.87" id="svg_25"/>
   <circle cx="109.82675" cy="27.73382" r="0.77" fill="#2c2c28" opacity="0.66" id="svg_26"/>
   <circle cx="113.82675" cy="27.73382" r="0.96" fill="#b8896a" opacity="0.68" id="svg_27"/>
   <circle cx="117.82675" cy="27.73382" r="1.82" fill="#b8896a" opacity="0.74" id="svg_28"/>
   <circle cx="137.82675" cy="27.73382" r="1.36" fill="#2c2c28" opacity="0.89" id="svg_29"/>
   <circle cx="161.82675" cy="27.73382" r="1.21" fill="#2c2c28" opacity="0.91" id="svg_30"/>
   <circle cx="165.82675" cy="27.73382" r="1.88" fill="#2c2c28" opacity="0.83" id="svg_31"/>
   <circle cx="177.82675" cy="27.73382" r="1.32" fill="#2c2c28" opacity="0.78" id="svg_32"/>
   <circle cx="181.82675" cy="27.73382" r="1.85" fill="#2c2c28" opacity="0.76" id="svg_33"/>
   <circle cx="185.82675" cy="27.73382" r="1.87" fill="#b8896a" opacity="0.97" id="svg_34"/>
   <circle cx="189.82675" cy="27.73382" r="1.72" fill="#2c2c28" opacity="0.75" id="svg_35"/>
   <circle cx="201.82675" cy="27.73382" r="1.53" fill="#2c2c28" opacity="0.91" id="svg_36"/>
   <circle cx="205.82675" cy="27.73382" r="1.72" fill="#2c2c28" opacity="0.72" id="svg_37"/>
   <circle cx="209.82675" cy="27.73382" r="1.6" fill="#2c2c28" opacity="0.73" id="svg_38"/>
   <circle cx="29.82675" cy="31.73382" r="1.3" fill="#b8896a" opacity="0.97" id="svg_39"/>
   <circle cx="41.82675" cy="31.73382" r="1.58" fill="#2c2c28" opacity="0.93" id="svg_40"/>
   <circle cx="57.82675" cy="31.73382" r="1.89" fill="#2c2c28" opacity="0.86" id="svg_41"/>
   <circle cx="69.82675" cy="31.73382" r="1.42" fill="#2c2c28" opacity="0.96" id="svg_42"/>
   <circle cx="85.82675" cy="31.73382" r="1.52" fill="#2c2c28" opacity="0.71" id="svg_43"/>
   <circle cx="89.82675" cy="31.73382" r="0.65" fill="#2c2c28" opacity="0.91" id="svg_44"/>
   <circle cx="97.82675" cy="31.73382" r="1.2" fill="#2c2c28" opacity="0.82" id="svg_45"/>
   <circle cx="109.82675" cy="31.73382" r="0.88" fill="#2c2c28" opacity="0.84" id="svg_46"/>
   <circle cx="113.82675" cy="31.73382" r="1.39" fill="#2c2c28" opacity="0.77" id="svg_47"/>
   <circle cx="117.82675" cy="31.73382" r="1.42" fill="#b8896a" opacity="0.88" id="svg_48"/>
   <circle cx="129.82675" cy="31.73382" r="0.52" fill="#2c2c28" opacity="0.8" id="svg_49"/>
   <circle cx="137.82675" cy="31.73382" r="0.61" fill="#2c2c28" opacity="0.83" id="svg_50"/>
   <circle cx="153.82675" cy="31.73382" r="0.91" fill="#2c2c28" opacity="0.92" id="svg_51"/>
   <circle cx="157.82675" cy="31.73382" r="1.76" fill="#2c2c28" opacity="0.65" id="svg_52"/>
   <circle cx="169.82675" cy="31.73382" r="1.93" fill="#2c2c28" opacity="0.83" id="svg_53"/>
   <circle cx="181.82675" cy="31.73382" r="1.45" fill="#2c2c28" opacity="0.68" id="svg_54" stroke="null"/>
   <circle cx="197.82675" cy="31.73382" r="1" fill="#2c2c28" opacity="0.71" id="svg_55"/>
   <circle cx="209.82675" cy="31.73382" r="1.63" fill="#2c2c28" opacity="0.9" id="svg_56"/>
   <circle cx="29.82675" cy="35.73382" r="0.85" fill="#2c2c28" opacity="0.74" id="svg_57"/>
   <circle cx="33.82675" cy="35.73382" r="1.46" fill="#2c2c28" opacity="0.84" id="svg_58"/>
   <circle cx="37.82675" cy="35.73382" r="1.55" fill="#2c2c28" opacity="0.67" id="svg_59"/>
   <circle cx="41.82675" cy="35.73382" r="0.75" fill="#2c2c28" opacity="0.7" id="svg_60"/>
   <circle cx="53.82675" cy="35.73382" r="1.67" fill="#2c2c28" opacity="0.85" id="svg_61"/>
   <circle cx="69.82675" cy="35.73382" r="0.77" fill="#2c2c28" opacity="0.88" id="svg_62"/>
   <circle cx="73.82675" cy="35.73382" r="0.59" fill="#b8896a" opacity="0.78" id="svg_63"/>
   <circle cx="85.82675" cy="35.73382" r="1.4" fill="#2c2c28" opacity="0.87" id="svg_64"/>
   <circle cx="97.82675" cy="35.73382" r="1.28" fill="#2c2c28" opacity="0.85" id="svg_65"/>
   <circle cx="109.82675" cy="35.73382" r="1.22" fill="#b8896a" opacity="0.94" id="svg_66"/>
   <circle cx="117.82675" cy="35.73382" r="1.94" fill="#b8896a" opacity="0.66" id="svg_67"/>
   <circle cx="129.82675" cy="35.73382" r="1.62" fill="#2c2c28" opacity="0.94" id="svg_68"/>
   <circle cx="137.82675" cy="35.73382" r="1.84" fill="#2c2c28" opacity="0.77" id="svg_69"/>
   <circle cx="153.82675" cy="35.73382" r="0.52" fill="#2c2c28" opacity="0.72" id="svg_70"/>
   <circle cx="169.82675" cy="35.73382" r="1.92" fill="#2c2c28" opacity="0.73" id="svg_71"/>
   <circle cx="181.82675" cy="35.73382" r="0.63" fill="#2c2c28" opacity="0.91" id="svg_72"/>
   <circle cx="197.82675" cy="35.73382" r="1.76" fill="#2c2c28" opacity="0.93" id="svg_73"/>
   <circle cx="209.82675" cy="35.73382" r="1.76" fill="#2c2c28" opacity="0.83" id="svg_74"/>
   <circle cx="213.82675" cy="35.73382" r="1.59" fill="#2c2c28" opacity="0.68" id="svg_75"/>
   <circle cx="29.82675" cy="39.73382" r="1.2" fill="#b8896a" opacity="0.97" id="svg_76"/>
   <circle cx="41.82675" cy="39.73382" r="0.59" fill="#2c2c28" opacity="0.67" id="svg_77"/>
   <circle cx="53.82675" cy="39.73382" r="1.85" fill="#2c2c28" opacity="0.72" id="svg_78"/>
   <circle cx="69.82675" cy="39.73382" r="1.97" fill="#b8896a" opacity="0.98" id="svg_79"/>
   <circle cx="73.82675" cy="39.73382" r="1.95" fill="#2c2c28" opacity="0.95" id="svg_80"/>
   <circle cx="81.82675" cy="39.73382" r="1.54" fill="#2c2c28" opacity="0.69" id="svg_81"/>
   <circle cx="85.82675" cy="39.73382" r="0.67" fill="#2c2c28" opacity="0.92" id="svg_82"/>
   <circle cx="109.82675" cy="39.73382" r="1.67" fill="#2c2c28" opacity="0.66" id="svg_83"/>
   <circle cx="117.82675" cy="39.73382" r="1.09" fill="#2c2c28" opacity="0.98" id="svg_84"/>
   <circle cx="121.82675" cy="39.73382" r="1.05" fill="#2c2c28" opacity="0.78" id="svg_85"/>
   <circle cx="125.82675" cy="39.73382" r="0.93" fill="#2c2c28" opacity="0.79" id="svg_86"/>
   <circle cx="137.82675" cy="39.73382" r="1.11" fill="#2c2c28" opacity="0.96" id="svg_87"/>
   <circle cx="153.82675" cy="39.73382" r="1.71" fill="#2c2c28" opacity="0.95" id="svg_88"/>
   <circle cx="157.82675" cy="39.73382" r="0.89" fill="#2c2c28" id="svg_89"/>
   <circle cx="161.82675" cy="39.73382" r="1.08" fill="#2c2c28" opacity="0.67" id="svg_90"/>
   <circle cx="165.82675" cy="39.73382" r="1.79" fill="#2c2c28" opacity="0.9" id="svg_91"/>
   <circle cx="169.82675" cy="39.73382" r="0.79" fill="#2c2c28" opacity="0.94" id="svg_92"/>
   <circle cx="181.82675" cy="39.73382" r="1.79" fill="#2c2c28" opacity="0.9" id="svg_93"/>
   <circle cx="201.82675" cy="39.73382" r="1.92" fill="#2c2c28" opacity="0.89" id="svg_94"/>
   <circle cx="205.82675" cy="39.73382" r="1.65" fill="#2c2c28" opacity="0.73" id="svg_95"/>
   <circle cx="209.82675" cy="39.73382" r="1.85" fill="#2c2c28" opacity="0.71" id="svg_96"/>
   <circle cx="213.82675" cy="39.73382" r="1.87" fill="#2c2c28" opacity="0.71" id="svg_97"/>
   <circle cx="29.82675" cy="43.73382" r="0.66" fill="#2c2c28" opacity="0.67" id="svg_98"/>
   <circle cx="49.82675" cy="43.73382" r="1.84" fill="#2c2c28" opacity="0.67" id="svg_99"/>
   <circle cx="53.82675" cy="43.73382" r="1.07" fill="#2c2c28" opacity="0.95" id="svg_100"/>
   <circle cx="69.82675" cy="43.73382" r="1.23" fill="#2c2c28" opacity="0.67" id="svg_101"/>
   <circle cx="73.82675" cy="43.73382" r="1.15" fill="#2c2c28" opacity="0.9" id="svg_102"/>
   <circle cx="81.82675" cy="43.73382" r="1.13" fill="#b8896a" opacity="0.88" id="svg_103"/>
   <circle cx="85.82675" cy="43.73382" r="0.84" fill="#b8896a" opacity="0.95" id="svg_104"/>
   <circle cx="109.82675" cy="43.73382" r="0.74" fill="#2c2c28" opacity="0.68" id="svg_105"/>
   <circle cx="121.82675" cy="43.73382" r="0.73" fill="#b8896a" opacity="0.71" id="svg_106"/>
   <circle cx="125.82675" cy="43.73382" r="0.51" fill="#2c2c28" opacity="0.81" id="svg_107"/>
   <circle cx="137.82675" cy="43.73382" r="1.24" fill="#2c2c28" opacity="0.65" id="svg_108"/>
   <circle cx="153.82675" cy="43.73382" r="1.02" fill="#2c2c28" opacity="0.72" id="svg_109"/>
   <circle cx="181.82675" cy="43.73382" r="1.01" fill="#2c2c28" opacity="0.95" id="svg_110"/>
   <circle cx="197.82675" cy="43.73382" r="1.74" fill="#2c2c28" opacity="0.8" id="svg_111"/>
   <circle cx="209.82675" cy="43.73382" r="1.06" fill="#2c2c28" opacity="0.74" id="svg_112"/>
   <circle cx="213.82675" cy="43.73382" r="0.76" fill="#2c2c28" opacity="0.65" id="svg_113"/>
   <circle cx="29.82675" cy="47.73382" r="1.67" fill="#2c2c28" opacity="0.87" id="svg_114"/>
   <circle cx="53.82675" cy="47.73382" r="0.94" fill="#2c2c28" opacity="0.81" id="svg_115"/>
   <circle cx="69.82675" cy="47.73382" r="1.61" fill="#b8896a" opacity="0.98" id="svg_116"/>
   <circle cx="81.82675" cy="47.73382" r="1.34" fill="#b8896a" opacity="0.73" id="svg_117"/>
   <circle cx="109.82675" cy="47.73382" r="1.22" fill="#2c2c28" opacity="0.9" id="svg_118"/>
   <circle cx="121.82675" cy="47.73382" r="1.45" fill="#b8896a" opacity="0.76" id="svg_119"/>
   <circle cx="137.82675" cy="47.73382" r="1.86" fill="#2c2c28" opacity="0.86" id="svg_120"/>
   <circle cx="153.82675" cy="47.73382" r="0.72" fill="#2c2c28" opacity="0.81" id="svg_121"/>
   <circle cx="157.82675" cy="47.73382" r="1.58" fill="#2c2c28" opacity="0.69" id="svg_122"/>
   <circle cx="181.82675" cy="47.73382" r="0.54" fill="#2c2c28" opacity="0.82" id="svg_123"/>
   <circle cx="197.82675" cy="47.73382" r="0.7" fill="#2c2c28" opacity="0.65" id="svg_124"/>
   <circle cx="209.82675" cy="47.73382" r="1.52" fill="#2c2c28" opacity="0.78" id="svg_125"/>
   <circle cx="213.82675" cy="47.73382" r="1.27" fill="#2c2c28" opacity="0.76" id="svg_126"/>
   <circle cx="21.82675" cy="51.73382" r="1.36" fill="#b8896a" opacity="0.92" id="svg_127"/>
   <circle cx="25.82675" cy="51.73382" r="1.54" fill="#2c2c28" opacity="0.86" id="svg_128"/>
   <circle cx="29.82675" cy="51.73382" r="1.67" fill="#2c2c28" id="svg_129"/>
   <circle cx="33.82675" cy="51.73382" r="0.78" fill="#b8896a" opacity="0.7" id="svg_130"/>
   <circle cx="53.82675" cy="51.73382" r="1.81" fill="#2c2c28" opacity="0.91" id="svg_131"/>
   <circle cx="57.82675" cy="51.73382" r="1.72" fill="#2c2c28" opacity="0.9" id="svg_132"/>
   <circle cx="61.82675" cy="51.73382" r="1.5" fill="#b8896a" opacity="0.87" id="svg_133"/>
   <circle cx="65.82675" cy="51.73382" r="0.54" fill="#b8896a" opacity="0.82" id="svg_134"/>
   <circle cx="81.82675" cy="51.73382" r="0.71" fill="#b8896a" opacity="0.88" id="svg_135"/>
   <circle cx="101.82675" cy="51.73382" r="1.83" fill="#b8896a" opacity="0.74" id="svg_136"/>
   <circle cx="105.82675" cy="51.73382" r="0.64" fill="#2c2c28" opacity="0.8" id="svg_137"/>
   <circle cx="109.82675" cy="51.73382" r="1.09" fill="#2c2c28" opacity="0.93" id="svg_138"/>
   <circle cx="113.82675" cy="51.73382" r="1.24" fill="#2c2c28" opacity="0.9" id="svg_139"/>
   <circle cx="121.82675" cy="51.73382" r="0.5" fill="#b8896a" opacity="0.95" id="svg_140"/>
   <circle cx="133.82675" cy="51.73382" r="1.21" fill="#b8896a" opacity="0.99" id="svg_141"/>
   <circle cx="137.82675" cy="51.73382" r="1.89" fill="#2c2c28" opacity="0.86" id="svg_142"/>
   <circle cx="141.82675" cy="51.73382" r="1.55" fill="#2c2c28" opacity="0.84" id="svg_143"/>
   <circle cx="145.82675" cy="51.73382" r="1.59" fill="#2c2c28" opacity="0.71" id="svg_144"/>
   <circle cx="157.82675" cy="51.73382" r="1.38" fill="#b8896a" opacity="0.96" id="svg_145"/>
   <circle cx="161.82675" cy="51.73382" r="0.66" fill="#2c2c28" opacity="0.66" id="svg_146"/>
   <circle cx="165.82675" cy="51.73382" r="0.75" fill="#2c2c28" opacity="0.77" id="svg_147"/>
   <circle cx="169.82675" cy="51.73382" r="0.64" fill="#b8896a" opacity="0.7" id="svg_148"/>
   <circle cx="181.82675" cy="51.73382" r="1.63" fill="#2c2c28" opacity="0.88" id="svg_149"/>
   <circle cx="185.82675" cy="51.73382" r="1.4" fill="#2c2c28" opacity="0.82" id="svg_150"/>
   <circle cx="189.82675" cy="51.73382" r="1.47" fill="#2c2c28" opacity="0.99" id="svg_151"/>
   <circle cx="197.82675" cy="51.73382" r="1.13" fill="#2c2c28" opacity="0.88" id="svg_152"/>
   <circle cx="201.82675" cy="51.73382" r="1.17" fill="#2c2c28" opacity="0.81" id="svg_153"/>
   <circle cx="205.82675" cy="51.73382" r="0.86" fill="#2c2c28" opacity="0.92" id="svg_154"/>
   <circle cx="209.82675" cy="51.73382" r="1.63" fill="#2c2c28" opacity="0.95" id="svg_155"/>
   <circle cx="213.82675" cy="51.73382" r="1.31" fill="#b8896a" opacity="0.78" id="svg_156"/>
   <circle cx="217.82675" cy="51.73382" r="1.5" fill="#2c2c28" opacity="0.69" id="svg_157"/>
  </g>
 </g>

</svg>