<svg width="240" height="72" xmlns="http://www.w3.org/2000/svg">

 <g>
  <title>Layer 1</title>
  <g stroke="null" id="svg_158">
   <circle stroke="null" id="svg_2" opacity="0.69" fill="#111110" r="1.156" cy="18.1125" cx="11.71722"/>
   <circle stroke="null" id="svg_3" opacity="0.87" fill="#111110" r="1.83129" cy="18.1125" cx="16.29546"/>
   <circle stroke="null" id="svg_4" opacity="0.87" fill="#111110" r="2.12888" cy="18.1125" cx="34.60841"/>
   <circle stroke="null" id="svg_5" opacity="0.77" fill="#111110" r="2.11743" cy="18.1125" cx="39.18664"/>
   <circle stroke="null" id="svg_6" opacity="0.77" fill="#111110" r="0.7783" cy="18.1125" cx="103.28197"/>
   <circle stroke="null" id="svg_7" opacity="0.87" fill="#111110" r="0.91565" cy="18.1125" cx="107.86021"/>
   <circle stroke="null" id="svg_8" opacity="0.73" fill="#111110" r="1.14456" cy="18.1125" cx="112.43845"/>
   <circle stroke="null" id="svg_9" opacity="0.85" fill="#111110" r="1.63672" cy="18.1125" cx="135.32964"/>
   <circle stroke="null" id="svg_10" opacity="0.87" fill="#111110" r="1.11022" cy="18.1125" cx="139.90788"/>
   <circle stroke="null" id="svg_11" opacity="0.91" fill="#111110" r="0.7783" cy="18.1125" cx="144.48611"/>
   <circle stroke="null" id="svg_12" opacity="0.89" fill="#111110" r="0.98432" cy="22.69074" cx="16.29546"/>
   <circle stroke="null" id="svg_13" opacity="0.9" fill="#111110" r="2.16322" cy="22.69074" cx="39.18664"/>
   <circle stroke="null" id="svg_14" opacity="0.78" fill="#111110" r="2.16322" cy="22.69074" cx="107.86021"/>
   <circle stroke="null" id="svg_15" opacity="0.67" fill="#111110" r="0.78974" cy="22.69074" cx="112.43845"/>
   <circle stroke="null" id="svg_16" opacity="0.99" fill="#111110" r="2.06021" cy="22.69074" cx="135.32964"/>
   <circle stroke="null" id="svg_17" opacity="0.8" fill="#111110" r="0.83553" cy="22.69074" cx="139.90788"/>
   <circle stroke="null" id="svg_18" opacity="0.88" fill="#111110" r="0.97287" cy="22.69074" cx="190.26849"/>
   <circle stroke="null" id="svg_19" opacity="0.85" fill="#111110" r="1.09878" cy="27.26898" cx="16.29546"/>
   <circle stroke="null" id="svg_20" opacity="0.84" fill="#111110" r="1.05299" cy="27.26898" cx="52.92136"/>
   <circle stroke="null" id="svg_21" opacity="0.92" fill="#111110" r="1.88853" cy="27.26898" cx="57.4996"/>
   <circle stroke="null" id="svg_22" opacity="0.89" fill="#111110" r="0.89276" cy="27.26898" cx="75.81255"/>
   <circle stroke="null" id="svg_23" opacity="0.92" fill="#111110" r="0.80119" cy="27.26898" cx="80.39078"/>
   <circle stroke="null" id="svg_24" opacity="0.76" fill="#111110" r="1.79695" cy="27.26898" cx="89.54726"/>
   <circle stroke="null" id="svg_25" opacity="0.76" fill="#111110" r="1.4307" cy="27.26898" cx="94.1255"/>
   <circle stroke="null" id="svg_26" opacity="0.71" fill="#111110" r="0.64095" cy="27.26898" cx="107.86021"/>
   <circle stroke="null" id="svg_27" opacity="0.91" fill="#111110" r="1.5566" cy="27.26898" cx="112.43845"/>
   <circle stroke="null" id="svg_28" opacity="0.9" fill="#111110" r="1.08733" cy="27.26898" cx="117.01669"/>
   <circle stroke="null" id="svg_29" opacity="0.68" fill="#111110" r="1.75117" cy="27.26898" cx="139.90788"/>
   <circle stroke="null" id="svg_30" opacity="0.86" fill="#111110" r="1.39636" cy="27.26898" cx="167.3773"/>
   <circle stroke="null" id="svg_31" opacity="0.85" fill="#111110" r="1.54515" cy="27.26898" cx="171.95554"/>
   <circle stroke="null" id="svg_32" opacity="0.76" fill="#111110" r="2.28912" cy="27.26898" cx="185.69025"/>
   <circle stroke="null" id="svg_33" opacity="0.93" fill="#111110" r="0.81263" cy="27.26898" cx="190.26849"/>
   <circle stroke="null" id="svg_34" opacity="0.66" fill="#111110" r="0.9042" cy="27.26898" cx="194.84673"/>
   <circle stroke="null" id="svg_35" opacity="0.93" fill="#111110" r="1.81984" cy="27.26898" cx="199.42497"/>
   <circle stroke="null" id="svg_36" opacity="0.69" fill="#111110" r="0.58372" cy="27.26898" cx="213.15968"/>
   <circle stroke="null" id="svg_37" opacity="0.68" fill="#111110" r="1.45358" cy="27.26898" cx="217.73792"/>
   <circle stroke="null" id="svg_38" opacity="0.79" fill="#111110" r="1.98007" cy="27.26898" cx="222.31616"/>
   <circle stroke="null" id="svg_39" opacity="0.73" fill="#111110" r="1.24757" cy="31.84721" cx="16.29546"/>
   <circle stroke="null" id="svg_40" opacity="0.82" fill="#111110" r="0.81264" cy="31.84721" cx="30.03017"/>
   <circle stroke="null" id="svg_41" opacity="0.96" fill="#111110" r="0.83553" cy="31.84721" cx="48.34312"/>
   <circle stroke="null" id="svg_42" opacity="0.99" fill="#111110" r="1.06444" cy="31.84721" cx="62.07783"/>
   <circle stroke="null" id="svg_43" opacity="0.74" fill="#111110" r="0.68673" cy="31.84721" cx="80.39078"/>
   <circle stroke="null" id="svg_44" opacity="0.82" fill="#111110" r="0.84697" cy="31.84721" cx="84.96902"/>
   <circle stroke="null" id="svg_45" opacity="0.95" fill="#111110" r="1.31624" cy="31.84721" cx="94.1255"/>
   <circle stroke="null" id="svg_46" opacity="0.71" fill="#111110" r="1.76262" cy="31.84721" cx="107.86021"/>
   <circle stroke="null" id="svg_47" fill="#111110" r="1.5337" cy="31.84721" cx="112.43845"/>
   <circle stroke="null" id="svg_48" opacity="0.92" fill="#111110" r="2.03731" cy="31.84721" cx="117.01669"/>
   <circle stroke="null" id="svg_49" opacity="0.76" fill="#111110" r="2.07165" cy="31.84721" cx="130.7514"/>
   <circle stroke="null" id="svg_50" opacity="0.84" fill="#111110" r="0.81263" cy="31.84721" cx="139.90788"/>
   <circle stroke="null" id="svg_51" opacity="0.87" fill="#111110" r="1.19034" cy="31.84721" cx="158.22083"/>
   <circle stroke="null" id="svg_52" opacity="0.94" fill="#111110" r="0.80118" cy="31.84721" cx="162.79906"/>
   <circle stroke="null" id="svg_53" opacity="0.96" fill="#111110" r="0.6295" cy="31.84721" cx="176.53378"/>
   <circle stroke="null" id="svg_54" opacity="0.68" fill="#111110" r="2.23188" cy="31.84721" cx="190.26849"/>
   <circle stroke="null" id="svg_55" opacity="0.76" fill="#111110" r="0.66384" cy="31.84721" cx="208.58144"/>
   <circle stroke="null" id="svg_56" opacity="0.88" fill="#111110" r="0.73251" cy="31.84721" cx="222.31616"/>
   <circle stroke="null" id="svg_57" opacity="0.8" fill="#111110" r="1.67106" cy="36.42545" cx="16.29546"/>
   <circle stroke="null" id="svg_58" opacity="0.91" fill="#111110" r="1.61383" cy="36.42545" cx="20.87369"/>
   <circle stroke="null" id="svg_59" opacity="0.93" fill="#111110" r="0.84698" cy="36.42545" cx="25.45193"/>
   <circle stroke="null" id="svg_60" opacity="0.84" fill="#111110" r="2.26623" cy="36.42545" cx="30.03017"/>
   <circle stroke="null" id="svg_61" opacity="0.77" fill="#111110" r="1.09878" cy="36.42545" cx="43.76488"/>
   <circle stroke="null" id="svg_62" opacity="0.75" fill="#111110" r="0.59517" cy="36.42545" cx="62.07783"/>
   <circle stroke="null" id="svg_63" opacity="0.93" fill="#111110" r="1.53371" cy="36.42545" cx="66.65607"/>
   <circle stroke="null" id="svg_64" opacity="0.78" fill="#111110" r="0.69818" cy="36.42545" cx="80.39078"/>
   <circle stroke="null" id="svg_65" opacity="0.65" fill="#111110" r="1.52227" cy="36.42545" cx="94.1255"/>
   <circle stroke="null" id="svg_66" opacity="0.94" fill="#111110" r="1.84274" cy="36.42545" cx="107.86021"/>
   <circle stroke="null" id="svg_67" opacity="0.78" fill="#111110" r="0.94999" cy="36.42545" cx="117.01669"/>
   <circle stroke="null" id="svg_68" opacity="0.88" fill="#111110" r="2.14033" cy="36.42545" cx="130.7514"/>
   <circle stroke="null" id="svg_69" opacity="0.85" fill="#111110" r="2.14033" cy="36.42545" cx="139.90788"/>
   <circle stroke="null" id="svg_70" opacity="0.92" fill="#111110" r="1.72828" cy="36.42545" cx="158.22083"/>
   <circle stroke="null" id="svg_71" fill="#111110" r="2.0831" cy="36.42545" cx="176.53378"/>
   <circle stroke="null" id="svg_72" opacity="0.92" fill="#111110" r="1.39637" cy="36.42545" cx="190.26849"/>
   <circle stroke="null" id="svg_73" opacity="0.96" fill="#111110" r="1.54515" cy="36.42545" cx="208.58144"/>
   <circle stroke="null" id="svg_74" opacity="0.77" fill="#111110" r="1.04155" cy="36.42545" cx="222.31616"/>
   <circle stroke="null" id="svg_75" opacity="0.84" fill="#111110" r="0.59517" cy="36.42545" cx="226.89439"/>
   <circle stroke="null" id="svg_76" opacity="0.76" fill="#111110" r="1.65961" cy="41.00369" cx="16.29546"/>
   <circle stroke="null" id="svg_77" opacity="0.96" fill="#111110" r="1.01866" cy="41.00369" cx="30.03017"/>
   <circle stroke="null" id="svg_78" opacity="0.77" fill="#111110" r="0.62951" cy="41.00369" cx="43.76488"/>
   <circle stroke="null" id="svg_79" opacity="0.87" fill="#111110" r="1.67106" cy="41.00369" cx="62.07783"/>
   <circle stroke="null" id="svg_80" opacity="0.68" fill="#111110" r="1.86563" cy="41.00369" cx="66.65607"/>
   <circle stroke="null" id="svg_81" opacity="0.79" fill="#111110" r="2.18611" cy="41.00369" cx="75.81255"/>
   <circle stroke="null" id="svg_82" opacity="0.84" fill="#111110" r="1.67106" cy="41.00369" cx="80.39078"/>
   <circle stroke="null" id="svg_83" opacity="0.96" fill="#111110" r="1.22468" cy="41.00369" cx="107.86021"/>
   <circle stroke="null" id="svg_84" opacity="0.75" fill="#111110" r="0.97287" cy="41.00369" cx="117.01669"/>
   <circle stroke="null" id="svg_85" opacity="0.96" fill="#111110" r="1.84274" cy="41.00369" cx="121.59492"/>
   <circle stroke="null" id="svg_86" opacity="0.99" fill="#111110" r="0.93854" cy="41.00369" cx="126.17316"/>
   <circle stroke="null" id="svg_87" opacity="0.86" fill="#111110" r="0.70963" cy="41.00369" cx="139.90788"/>
   <circle stroke="null" id="svg_88" opacity="0.75" fill="#111110" r="1.98009" cy="41.00369" cx="158.22083"/>
   <circle stroke="null" id="svg_89" opacity="0.69" fill="#111110" r="1.83129" cy="41.00369" cx="162.79906"/>
   <circle stroke="null" id="svg_90" opacity="0.81" fill="#111110" r="0.58372" cy="41.00369" cx="167.3773"/>
   <circle stroke="null" id="svg_91" fill="#111110" r="2.0831" cy="41.00369" cx="171.95554"/>
   <circle stroke="null" id="svg_92" opacity="0.74" fill="#111110" r="0.7783" cy="41.00369" cx="176.53378"/>
   <circle stroke="null" id="svg_93" opacity="0.89" fill="#111110" r="2.0831" cy="41.00369" cx="190.26849"/>
   <circle stroke="null" id="svg_94" opacity="0.75" fill="#111110" r="1.22467" cy="41.00369" cx="213.15968"/>
   <circle stroke="null" id="svg_95" opacity="0.98" fill="#111110" r="1.13311" cy="41.00369" cx="217.73792"/>
   <circle stroke="null" id="svg_96" opacity="0.95" fill="#111110" r="0.96142" cy="41.00369" cx="222.31616"/>
   <circle stroke="null" id="svg_97" opacity="0.84" fill="#111110" r="2.17465" cy="41.00369" cx="226.89439"/>
   <circle stroke="null" id="svg_98" opacity="0.94" fill="#111110" r="1.75117" cy="45.58193" cx="16.29546"/>
   <circle stroke="null" id="svg_99" opacity="0.88" fill="#111110" r="1.39636" cy="45.58193" cx="39.18664"/>
   <circle stroke="null" id="svg_100" opacity="0.76" fill="#111110" r="2.06021" cy="45.58193" cx="43.76488"/>
   <circle stroke="null" id="svg_101" opacity="0.93" fill="#111110" r="0.98432" cy="45.58193" cx="62.07783"/>
   <circle stroke="null" id="svg_102" opacity="0.94" fill="#111110" r="1.2819" cy="45.58193" cx="66.65607"/>
   <circle stroke="null" id="svg_103" opacity="0.69" fill="#111110" r="0.76685" cy="45.58193" cx="75.81255"/>
   <circle stroke="null" id="svg_104" opacity="0.97" fill="#111110" r="2.23189" cy="45.58193" cx="80.39078"/>
   <circle stroke="null" id="svg_105" opacity="0.69" fill="#111110" r="0.83553" cy="45.58193" cx="107.86021"/>
   <circle stroke="null" id="svg_106" opacity="0.84" fill="#111110" r="1.61383" cy="45.58193" cx="121.59492"/>
   <circle stroke="null" id="svg_107" opacity="0.83" fill="#111110" r="1.30479" cy="45.58193" cx="126.17316"/>
   <circle stroke="null" id="svg_108" opacity="0.73" fill="#111110" r="2.00298" cy="45.58193" cx="139.90788"/>
   <circle stroke="null" id="svg_109" opacity="0.95" fill="#111110" r="1.56804" cy="45.58193" cx="158.22083"/>
   <circle stroke="null" id="svg_110" opacity="0.82" fill="#111110" r="2.22044" cy="45.58193" cx="190.26849"/>
   <circle stroke="null" id="svg_111" opacity="0.89" fill="#111110" r="1.9343" cy="45.58193" cx="208.58144"/>
   <circle stroke="null" id="svg_112" opacity="0.69" fill="#111110" r="0.60662" cy="45.58193" cx="222.31616"/>
   <circle stroke="null" id="svg_113" opacity="0.9" fill="#111110" r="2.01442" cy="45.58193" cx="226.89439"/>
   <circle stroke="null" id="svg_114" opacity="0.8" fill="#111110" r="1.76262" cy="50.16017" cx="16.29546"/>
   <circle stroke="null" id="svg_115" opacity="0.96" fill="#111110" r="1.01866" cy="50.16017" cx="43.76488"/>
   <circle stroke="null" id="svg_116" opacity="0.85" fill="#111110" r="2.01442" cy="50.16017" cx="62.07783"/>
   <circle stroke="null" id="svg_117" opacity="0.82" fill="#111110" r="0.70963" cy="50.16017" cx="75.81255"/>
   <circle stroke="null" id="svg_118" opacity="0.74" fill="#111110" r="2.22044" cy="50.16017" cx="107.86021"/>
   <circle stroke="null" id="svg_119" opacity="0.81" fill="#111110" r="0.91565" cy="50.16017" cx="121.59492"/>
   <circle stroke="null" id="svg_120" opacity="0.7" fill="#111110" r="1.99153" cy="50.16017" cx="139.90788"/>
   <circle stroke="null" id="svg_121" opacity="0.74" fill="#111110" r="1.156" cy="50.16017" cx="158.22083"/>
   <circle stroke="null" id="svg_122" opacity="0.96" fill="#111110" r="0.74396" cy="50.16017" cx="162.79906"/>
   <circle stroke="null" id="svg_123" opacity="0.86" fill="#111110" r="0.6295" cy="50.16017" cx="190.26849"/>
   <circle stroke="null" id="svg_124" opacity="0.95" fill="#111110" r="1.45358" cy="50.16017" cx="208.58144"/>
   <circle stroke="null" id="svg_125" opacity="0.72" fill="#111110" r="0.76685" cy="50.16017" cx="222.31616"/>
   <circle stroke="null" id="svg_126" opacity="0.88" fill="#111110" r="2.03731" cy="50.16017" cx="226.89439"/>
   <circle stroke="null" id="svg_127" opacity="0.88" fill="#111110" r="1.98009" cy="54.7384" cx="7.13898"/>
   <circle stroke="null" id="svg_128" opacity="0.76" fill="#111110" r="1.11022" cy="54.7384" cx="11.71722"/>
   <circle stroke="null" id="svg_129" opacity="0.8" fill="#111110" r="2.27767" cy="54.7384" cx="16.29546"/>
   <circle stroke="null" id="svg_130" opacity="0.73" fill="#111110" r="1.39636" cy="54.7384" cx="20.87369"/>
   <circle stroke="null" id="svg_131" opacity="0.79" fill="#111110" r="1.65961" cy="54.7384" cx="43.76488"/>
   <circle stroke="null" id="svg_132" opacity="0.73" fill="#111110" r="1.27046" cy="54.7384" cx="48.34312"/>
   <circle stroke="null" id="svg_133" opacity="0.95" fill="#111110" r="1.44214" cy="54.7384" cx="52.92136"/>
   <circle stroke="null" id="svg_134" opacity="0.95" fill="#111110" r="1.1789" cy="54.7384" cx="57.4996"/>
   <circle stroke="null" id="svg_135" opacity="0.89" fill="#111110" r="0.68673" cy="54.7384" cx="75.81255"/>
   <circle stroke="null" id="svg_136" opacity="0.89" fill="#111110" r="1.20179" cy="54.7384" cx="98.70374"/>
   <circle stroke="null" id="svg_137" opacity="0.7" fill="#111110" r="0.59516" cy="54.7384" cx="103.28197"/>
   <circle stroke="null" id="svg_138" opacity="0.85" fill="#111110" r="1.77407" cy="54.7384" cx="107.86021"/>
   <circle stroke="null" id="svg_139" opacity="0.73" fill="#111110" r="1.78551" cy="54.7384" cx="112.43845"/>
   <circle stroke="null" id="svg_140" opacity="0.86" fill="#111110" r="1.156" cy="54.7384" cx="121.59492"/>
   <circle stroke="null" id="svg_141" opacity="0.96" fill="#111110" r="1.19034" cy="54.7384" cx="135.32964"/>
   <circle stroke="null" id="svg_142" opacity="0.8" fill="#111110" r="1.69395" cy="54.7384" cx="139.90788"/>
   <circle stroke="null" id="svg_143" opacity="0.96" fill="#111110" r="1.76262" cy="54.7384" cx="144.48611"/>
   <circle stroke="null" id="svg_144" opacity="0.71" fill="#111110" r="2.03731" cy="54.7384" cx="149.06435"/>
   <circle stroke="null" id="svg_145" opacity="0.88" fill="#111110" r="0.8813" cy="54.7384" cx="162.79906"/>
   <circle stroke="null" id="svg_146" opacity="0.69" fill="#111110" r="1.98009" cy="54.7384" cx="167.3773"/>
   <circle stroke="null" id="svg_147" opacity="0.9" fill="#111110" r="0.96142" cy="54.7384" cx="171.95554"/>
   <circle stroke="null" id="svg_148" opacity="0.71" fill="#111110" r="1.49937" cy="54.7384" cx="176.53378"/>
   <circle stroke="null" id="svg_149" opacity="0.75" fill="#111110" r="1.54515" cy="54.7384" cx="190.26849"/>
   <circle stroke="null" id="svg_150" opacity="0.83" fill="#111110" r="1.49937" cy="54.7384" cx="194.84673"/>
   <circle stroke="null" id="svg_151" opacity="0.84" fill="#111110" r="2.209" cy="54.7384" cx="199.42497"/>
   <circle stroke="null" id="svg_152" opacity="0.91" fill="#111110" r="1.51082" cy="54.7384" cx="208.58144"/>
   <circle stroke="null" id="svg_153" opacity="0.85" fill="#111110" r="2.00297" cy="54.7384" cx="213.15968"/>
   <circle stroke="null" id="svg_154" opacity="0.99" fill="#111110" r="1.62527" cy="54.7384" cx="217.73792"/>
   <circle stroke="null" id="svg_155" opacity="0.68" fill="#111110" r="1.44214" cy="54.7384" cx="222.31616"/>
   <circle stroke="null" id="svg_156" opacity="0.92" fill="#111110" r="1.49937" cy="54.7384" cx="226.89439"/>
   <circle stroke="null" id="svg_157" opacity="0.73" fill="#111110" r="1.79696" cy="54.7384" cx="231.47263"/>
  </g>
 </g>
</svg>