<svg width="240" height="72" xmlns="http://www.w3.org/2000/svg">
 <g>
  <title>Layer 1</title>
  <rect stroke="null" x="-21" y="-2" width="283" height="76" fill="#1a1a18" id="svg_1"/>
  <g id="svg_158">
   <circle cx="30" cy="22" r="0.75" fill="#d8d4cc" opacity="0.79" id="svg_2" stroke="null"/>
   <circle cx="34" cy="22" r="1.64" fill="#d8d4cc" opacity="0.65" id="svg_3" stroke="null"/>
   <circle cx="50" cy="22" r="0.91" fill="#b8896a" opacity="0.77" id="svg_4" stroke="null"/>
   <circle cx="54" cy="22" r="1.9" fill="#b8896a" opacity="0.81" id="svg_5" stroke="null"/>
   <circle cx="110" cy="22" r="1.62" fill="#d8d4cc" opacity="0.89" id="svg_6" stroke="null"/>
   <circle cx="114" cy="22" r="0.61" fill="#d8d4cc" opacity="0.86" id="svg_7" stroke="null"/>
   <circle cx="118" cy="22" r="1.84" fill="#b8896a" opacity="0.73" id="svg_8" stroke="null"/>
   <circle cx="138" cy="22" r="1.52" fill="#d8d4cc" opacity="0.98" id="svg_9" stroke="null"/>
   <circle cx="142" cy="22" r="0.59" fill="#d8d4cc" opacity="0.85" id="svg_10" stroke="null"/>
   <circle cx="146" cy="22" r="0.57" fill="#d8d4cc" opacity="0.68" id="svg_11" stroke="null"/>
   <circle cx="34" cy="26" r="0.54" fill="#d8d4cc" opacity="0.77" id="svg_12" stroke="null"/>
   <circle cx="54" cy="26" r="1.62" fill="#d8d4cc" opacity="0.85" id="svg_13" stroke="null"/>
   <circle cx="114" cy="26" r="0.82" fill="#d8d4cc" opacity="0.71" id="svg_14" stroke="null"/>
   <circle cx="118" cy="26" r="0.59" fill="#d8d4cc" opacity="0.89" id="svg_15" stroke="null"/>
   <circle cx="138" cy="26" r="1.51" fill="#d8d4cc" opacity="0.99" id="svg_16" stroke="null"/>
   <circle cx="142" cy="26" r="1.07" fill="#d8d4cc" opacity="0.81" id="svg_17" stroke="null"/>
   <circle cx="186" cy="26" r="0.83" fill="#d8d4cc" id="svg_18" stroke="null"/>
   <circle cx="34" cy="30" r="1.8" fill="#d8d4cc" opacity="0.9" id="svg_19" stroke="null"/>
   <circle cx="66" cy="30" r="1" fill="#b8896a" opacity="0.7" id="svg_20" stroke="null"/>
   <circle cx="70" cy="30" r="1.97" fill="#d8d4cc" opacity="0.8" id="svg_21" stroke="null"/>
   <circle cx="86" cy="30" r="0.8" fill="#b8896a" opacity="0.96" id="svg_22" stroke="null"/>
   <circle cx="90" cy="30" r="1.84" fill="#b8896a" opacity="0.8" id="svg_23" stroke="null"/>
   <circle cx="98" cy="30" r="1.86" fill="#d8d4cc" opacity="0.97" id="svg_24" stroke="null"/>
   <circle cx="102" cy="30" r="1.01" fill="#d8d4cc" opacity="0.74" id="svg_25" stroke="null"/>
   <circle cx="114" cy="30" r="0.8" fill="#d8d4cc" opacity="0.87" id="svg_26" stroke="null"/>
   <circle cx="118" cy="30" r="1.62" fill="#b8896a" opacity="0.72" id="svg_27" stroke="null"/>
   <circle cx="122" cy="30" r="0.56" fill="#d8d4cc" opacity="0.68" id="svg_28" stroke="null"/>
   <circle cx="142" cy="30" r="0.69" fill="#d8d4cc" opacity="0.75" id="svg_29" stroke="null"/>
   <circle cx="166" cy="30" r="0.85" fill="#d8d4cc" opacity="0.7" id="svg_30" stroke="null"/>
   <circle cx="170" cy="30" r="1.34" fill="#d8d4cc" opacity="0.86" id="svg_31" stroke="null"/>
   <circle cx="182" cy="30" r="0.69" fill="#d8d4cc" opacity="0.73" id="svg_32" stroke="null"/>
   <circle cx="186" cy="30" r="0.92" fill="#d8d4cc" opacity="0.99" id="svg_33" stroke="null"/>
   <circle cx="190" cy="30" r="1.87" fill="#d8d4cc" opacity="0.95" id="svg_34" stroke="null"/>
   <circle cx="194" cy="30" r="1.31" fill="#d8d4cc" opacity="0.93" id="svg_35" stroke="null"/>
   <circle cx="206" cy="30" r="1.78" fill="#d8d4cc" opacity="0.76" id="svg_36" stroke="null"/>
   <circle cx="210" cy="30" r="1.32" fill="#d8d4cc" opacity="0.75" id="svg_37" stroke="null"/>
   <circle cx="214" cy="30" r="1.21" fill="#d8d4cc" opacity="0.77" id="svg_38" stroke="null"/>
   <circle cx="34" cy="34" r="1.4" fill="#d8d4cc" opacity="0.87" id="svg_39" stroke="null"/>
   <circle cx="46" cy="34" r="1.83" fill="#d8d4cc" opacity="0.75" id="svg_40" stroke="null"/>
   <circle cx="62" cy="34" r="1" fill="#b8896a" opacity="0.68" id="svg_41" stroke="null"/>
   <circle cx="74" cy="34" r="1.62" fill="#d8d4cc" opacity="0.82" id="svg_42" stroke="null"/>
   <circle cx="90" cy="34" r="1.33" fill="#d8d4cc" opacity="0.92" id="svg_43" stroke="null"/>
   <circle cx="94" cy="34" r="1.25" fill="#d8d4cc" opacity="0.99" id="svg_44" stroke="null"/>
   <circle cx="102" cy="34" r="1.75" fill="#d8d4cc" opacity="0.92" id="svg_45" stroke="null"/>
   <circle cx="114" cy="34" r="1.83" fill="#b8896a" opacity="0.68" id="svg_46" stroke="null"/>
   <circle cx="118" cy="34" r="1.49" fill="#b8896a" opacity="0.65" id="svg_47" stroke="null"/>
   <circle cx="122" cy="34" r="1.62" fill="#b8896a" opacity="0.7" id="svg_48" stroke="null"/>
   <circle cx="134" cy="34" r="1.97" fill="#d8d4cc" opacity="0.88" id="svg_49" stroke="null"/>
   <circle cx="142" cy="34" r="0.96" fill="#d8d4cc" opacity="0.9" id="svg_50" stroke="null"/>
   <circle cx="158" cy="34" r="1.13" fill="#d8d4cc" opacity="0.67" id="svg_51" stroke="null"/>
   <circle cx="162" cy="34" r="1.43" fill="#d8d4cc" opacity="0.75" id="svg_52" stroke="null"/>
   <circle cx="174" cy="34" r="1.79" fill="#d8d4cc" id="svg_53" stroke="null"/>
   <circle cx="186" cy="34" r="1.76" fill="#d8d4cc" opacity="0.66" id="svg_54" stroke="null"/>
   <circle cx="202" cy="34" r="0.93" fill="#d8d4cc" opacity="0.75" id="svg_55" stroke="null"/>
   <circle cx="214" cy="34" r="1.43" fill="#d8d4cc" opacity="0.72" id="svg_56" stroke="null"/>
   <circle cx="34" cy="38" r="1.07" fill="#b8896a" opacity="0.9" id="svg_57" stroke="null"/>
   <circle cx="38" cy="38" r="0.66" fill="#b8896a" opacity="0.76" id="svg_58" stroke="null"/>
   <circle cx="42" cy="38" r="1.56" fill="#b8896a" opacity="0.77" id="svg_59" stroke="null"/>
   <circle cx="46" cy="38" r="1.34" fill="#d8d4cc" opacity="0.89" id="svg_60" stroke="null"/>
   <circle cx="58" cy="38" r="1.53" fill="#d8d4cc" opacity="0.67" id="svg_61" stroke="null"/>
   <circle cx="74" cy="38" r="0.84" fill="#d8d4cc" opacity="0.98" id="svg_62" stroke="null"/>
   <circle cx="78" cy="38" r="0.75" fill="#d8d4cc" opacity="0.8" id="svg_63" stroke="null"/>
   <circle cx="90" cy="38" r="1.05" fill="#d8d4cc" opacity="0.8" id="svg_64" stroke="null"/>
   <circle cx="102" cy="38" r="1.4" fill="#d8d4cc" opacity="0.72" id="svg_65" stroke="null"/>
   <circle cx="114" cy="38" r="1.7" fill="#d8d4cc" opacity="0.69" id="svg_66" stroke="null"/>
   <circle cx="122" cy="38" r="0.62" fill="#d8d4cc" opacity="0.78" id="svg_67" stroke="null"/>
   <circle cx="134" cy="38" r="1.89" fill="#d8d4cc" opacity="0.75" id="svg_68" stroke="null"/>
   <circle cx="142" cy="38" r="0.79" fill="#d8d4cc" opacity="0.65" id="svg_69" stroke="null"/>
   <circle cx="158" cy="38" r="1.9" fill="#d8d4cc" opacity="0.92" id="svg_70" stroke="null"/>
   <circle cx="174" cy="38" r="1.19" fill="#d8d4cc" opacity="0.96" id="svg_71" stroke="null"/>
   <circle cx="186" cy="38" r="0.93" fill="#d8d4cc" opacity="0.69" id="svg_72" stroke="null"/>
   <circle cx="202" cy="38" r="1.61" fill="#d8d4cc" opacity="0.79" id="svg_73" stroke="null"/>
   <circle cx="214" cy="38" r="1.77" fill="#d8d4cc" opacity="0.89" id="svg_74" stroke="null"/>
   <circle cx="218" cy="38" r="0.91" fill="#b8896a" opacity="0.86" id="svg_75" stroke="null"/>
   <circle cx="34" cy="42" r="1.78" fill="#b8896a" opacity="0.91" id="svg_76" stroke="null"/>
   <circle cx="46" cy="42" r="1.68" fill="#d8d4cc" opacity="0.66" id="svg_77" stroke="null"/>
   <circle cx="58" cy="42" r="1.64" fill="#d8d4cc" opacity="0.66" id="svg_78" stroke="null"/>
   <circle cx="74" cy="42" r="1.27" fill="#d8d4cc" opacity="0.93" id="svg_79" stroke="null"/>
   <circle cx="78" cy="42" r="1.44" fill="#d8d4cc" opacity="0.84" id="svg_80" stroke="null"/>
   <circle cx="86" cy="42" r="1.51" fill="#d8d4cc" opacity="0.68" id="svg_81" stroke="null"/>
   <circle cx="90" cy="42" r="0.95" fill="#d8d4cc" opacity="0.9" id="svg_82" stroke="null"/>
   <circle cx="114" cy="42" r="0.73" fill="#b8896a" opacity="0.79" id="svg_83" stroke="null"/>
   <circle cx="122" cy="42" r="0.74" fill="#d8d4cc" opacity="0.85" id="svg_84" stroke="null"/>
   <circle cx="126" cy="42" r="0.6" fill="#d8d4cc" opacity="0.84" id="svg_85" stroke="null"/>
   <circle cx="130" cy="42" r="1.84" fill="#d8d4cc" opacity="0.82" id="svg_86" stroke="null"/>
   <circle cx="142" cy="42" r="0.56" fill="#d8d4cc" opacity="0.77" id="svg_87" stroke="null"/>
   <circle cx="158" cy="42" r="0.81" fill="#d8d4cc" opacity="0.99" id="svg_88" stroke="null"/>
   <circle cx="162" cy="42" r="1.36" fill="#d8d4cc" opacity="0.98" id="svg_89" stroke="null"/>
   <circle cx="166" cy="42" r="1.5" fill="#d8d4cc" opacity="0.91" id="svg_90" stroke="null"/>
   <circle cx="170" cy="42" r="1.64" fill="#d8d4cc" opacity="0.87" id="svg_91" stroke="null"/>
   <circle cx="174" cy="42" r="1.52" fill="#d8d4cc" opacity="0.69" id="svg_92" stroke="null"/>
   <circle cx="186" cy="42" r="1.49" fill="#d8d4cc" opacity="0.95" id="svg_93" stroke="null"/>
   <circle cx="206" cy="42" r="1.39" fill="#d8d4cc" opacity="0.69" id="svg_94" stroke="null"/>
   <circle cx="210" cy="42" r="0.81" fill="#d8d4cc" opacity="0.7" id="svg_95" stroke="null"/>
   <circle cx="214" cy="42" r="1.48" fill="#d8d4cc" opacity="0.99" id="svg_96" stroke="null"/>
   <circle cx="218" cy="42" r="1.21" fill="#d8d4cc" opacity="0.65" id="svg_97" stroke="null"/>
   <circle cx="34" cy="46" r="1.68" fill="#b8896a" opacity="0.95" id="svg_98" stroke="null"/>
   <circle cx="54" cy="46" r="1.29" fill="#d8d4cc" opacity="0.93" id="svg_99" stroke="null"/>
   <circle cx="58" cy="46" r="1.83" fill="#b8896a" opacity="0.67" id="svg_100" stroke="null"/>
   <circle cx="74" cy="46" r="0.68" fill="#d8d4cc" opacity="0.95" id="svg_101" stroke="null"/>
   <circle cx="78" cy="46" r="1.33" fill="#d8d4cc" opacity="0.84" id="svg_102" stroke="null"/>
   <circle cx="86" cy="46" r="1.25" fill="#d8d4cc" opacity="0.66" id="svg_103" stroke="null"/>
   <circle cx="90" cy="46" r="1.25" fill="#b8896a" opacity="0.66" id="svg_104" stroke="null"/>
   <circle cx="114" cy="46" r="1.12" fill="#d8d4cc" opacity="0.96" id="svg_105" stroke="null"/>
   <circle cx="126" cy="46" r="0.79" fill="#d8d4cc" opacity="0.7" id="svg_106" stroke="null"/>
   <circle cx="130" cy="46" r="1.15" fill="#b8896a" opacity="0.96" id="svg_107" stroke="null"/>
   <circle cx="142" cy="46" r="1.97" fill="#d8d4cc" opacity="0.87" id="svg_108" stroke="null"/>
   <circle cx="158" cy="46" r="0.65" fill="#b8896a" opacity="0.95" id="svg_109" stroke="null"/>
   <circle cx="186" cy="46" r="1.02" fill="#d8d4cc" opacity="0.85" id="svg_110" stroke="null"/>
   <circle cx="202" cy="46" r="1.26" fill="#d8d4cc" opacity="0.73" id="svg_111" stroke="null"/>
   <circle cx="214" cy="46" r="0.58" fill="#d8d4cc" opacity="0.94" id="svg_112" stroke="null"/>
   <circle cx="218" cy="46" r="1.12" fill="#d8d4cc" opacity="0.97" id="svg_113" stroke="null"/>
   <circle cx="34" cy="50" r="1.81" fill="#d8d4cc" opacity="0.79" id="svg_114" stroke="null"/>
   <circle cx="58" cy="50" r="1.34" fill="#b8896a" opacity="0.75" id="svg_115" stroke="null"/>
   <circle cx="74" cy="50" r="1.8" fill="#d8d4cc" opacity="0.82" id="svg_116" stroke="null"/>
   <circle cx="86" cy="50" r="1.59" fill="#d8d4cc" opacity="0.66" id="svg_117" stroke="null"/>
   <circle cx="114" cy="50" r="0.83" fill="#d8d4cc" opacity="0.75" id="svg_118" stroke="null"/>
   <circle cx="126" cy="50" r="1.6" fill="#b8896a" opacity="0.88" id="svg_119" stroke="null"/>
   <circle cx="142" cy="50" r="1.87" fill="#d8d4cc" opacity="0.94" id="svg_120" stroke="null"/>
   <circle cx="158" cy="50" r="1.04" fill="#b8896a" opacity="0.96" id="svg_121" stroke="null"/>
   <circle cx="162" cy="50" r="1.47" fill="#d8d4cc" opacity="0.97" id="svg_122" stroke="null"/>
   <circle cx="186" cy="50" r="0.59" fill="#b8896a" opacity="0.81" id="svg_123" stroke="null"/>
   <circle cx="202" cy="50" r="1.78" fill="#d8d4cc" opacity="0.79" id="svg_124" stroke="null"/>
   <circle cx="214" cy="50" r="0.6" fill="#d8d4cc" opacity="0.83" id="svg_125" stroke="null"/>
   <circle cx="218" cy="50" r="0.66" fill="#d8d4cc" opacity="0.79" id="svg_126" stroke="null"/>
   <circle cx="26" cy="54" r="0.83" fill="#d8d4cc" opacity="0.9" id="svg_127" stroke="null"/>
   <circle cx="30" cy="54" r="1.19" fill="#d8d4cc" opacity="0.8" id="svg_128" stroke="null"/>
   <circle cx="34" cy="54" r="1.36" fill="#d8d4cc" opacity="0.66" id="svg_129" stroke="null"/>
   <circle cx="38" cy="54" r="1.8" fill="#b8896a" opacity="0.82" id="svg_130" stroke="null"/>
   <circle cx="58" cy="54" r="1.09" fill="#d8d4cc" opacity="0.97" id="svg_131" stroke="null"/>
   <circle cx="62" cy="54" r="1.61" fill="#d8d4cc" opacity="0.9" id="svg_132" stroke="null"/>
   <circle cx="66" cy="54" r="0.6" fill="#b8896a" opacity="0.74" id="svg_133" stroke="null"/>
   <circle cx="70" cy="54" r="1.09" fill="#d8d4cc" opacity="0.84" id="svg_134" stroke="null"/>
   <circle cx="86" cy="54" r="1.35" fill="#d8d4cc" opacity="0.77" id="svg_135" stroke="null"/>
   <circle cx="106" cy="54" r="1.54" fill="#d8d4cc" opacity="0.92" id="svg_136" stroke="null"/>
   <circle cx="110" cy="54" r="0.7" fill="#b8896a" opacity="0.88" id="svg_137" stroke="null"/>
   <circle cx="114" cy="54" r="1.15" fill="#b8896a" opacity="0.73" id="svg_138" stroke="null"/>
   <circle cx="118" cy="54" r="1.42" fill="#d8d4cc" opacity="0.99" id="svg_139" stroke="null"/>
   <circle cx="126" cy="54" r="1.95" fill="#d8d4cc" opacity="0.73" id="svg_140" stroke="null"/>
   <circle cx="138" cy="54" r="1.23" fill="#d8d4cc" opacity="0.98" id="svg_141" stroke="null"/>
   <circle cx="142" cy="54" r="1.46" fill="#d8d4cc" opacity="0.65" id="svg_142" stroke="null"/>
   <circle cx="146" cy="54" r="0.69" fill="#d8d4cc" opacity="0.94" id="svg_143" stroke="null"/>
   <circle cx="150" cy="54" r="0.98" fill="#d8d4cc" opacity="0.87" id="svg_144" stroke="null"/>
   <circle cx="162" cy="54" r="1.47" fill="#d8d4cc" opacity="0.77" id="svg_145" stroke="null"/>
   <circle cx="166" cy="54" r="1.34" fill="#d8d4cc" opacity="0.85" id="svg_146" stroke="null"/>
   <circle cx="170" cy="54" r="1.06" fill="#d8d4cc" opacity="0.85" id="svg_147" stroke="null"/>
   <circle cx="174" cy="54" r="1.74" fill="#d8d4cc" opacity="0.84" id="svg_148" stroke="null"/>
   <circle cx="186" cy="54" r="1.69" fill="#d8d4cc" opacity="0.74" id="svg_149" stroke="null"/>
   <circle cx="190" cy="54" r="1.32" fill="#b8896a" opacity="0.68" id="svg_150" stroke="null"/>
   <circle cx="194" cy="54" r="0.83" fill="#d8d4cc" opacity="0.69" id="svg_151" stroke="null"/>
   <circle cx="202" cy="54" r="1.28" fill="#d8d4cc" opacity="0.8" id="svg_152" stroke="null"/>
   <circle cx="206" cy="54" r="1.64" fill="#b8896a" id="svg_153" stroke="null"/>
   <circle cx="210" cy="54" r="0.69" fill="#d8d4cc" opacity="0.75" id="svg_154" stroke="null"/>
   <circle cx="214" cy="54" r="1.51" fill="#d8d4cc" opacity="0.73" id="svg_155" stroke="null"/>
   <circle cx="218" cy="54" r="1.37" fill="#d8d4cc" opacity="0.71" id="svg_156" stroke="null"/>
   <circle cx="222" cy="54" r="0.91" fill="#d8d4cc" opacity="0.89" id="svg_157" stroke="null"/>
  </g>
 </g>

</svg>