<svg width="1149" height="245" viewBox="0 0 1149 245" fill="none" xmlns="http://www.w3.org/2000/svg">
<path d="M1108.4 237.494C1107.39 237.996 1106.39 238.247 1105.39 238.247C1102.12 238.247 1098.99 235.612 1095.98 230.343C1092.96 224.822 1091.46 216.919 1091.46 206.631V135.496C1091.46 119.939 1089.2 109.024 1084.68 102.751C1080.42 96.478 1074.77 93.3416 1067.75 93.3416C1061.47 93.3416 1056.33 94.9725 1052.32 98.2345C1048.3 101.245 1045.29 104.884 1043.28 109.149C1041.53 113.415 1040.27 117.43 1039.52 121.193C1038.77 124.706 1037.51 128.219 1035.76 131.732C1034 134.994 1030.49 136.625 1025.22 136.625C1020.95 136.625 1017.81 135.496 1015.81 133.238C1013.8 130.728 1012.8 128.094 1012.8 125.334C1012.8 120.566 1015.05 115.924 1019.57 111.408C1024.34 106.891 1030.24 102.751 1037.26 98.9872C1044.54 94.9725 1052.07 91.8361 1059.84 89.5778C1067.87 87.3195 1075.02 86.1904 1081.3 86.1904C1091.58 86.1904 1099.36 89.5778 1104.63 96.3526C1109.9 102.876 1112.54 112.16 1112.54 124.204V194.587C1112.54 203.369 1113.67 209.767 1115.92 213.782C1118.18 217.797 1121.82 219.804 1126.84 219.804C1131.36 219.804 1137.63 218.173 1145.66 214.911C1146.91 214.409 1147.79 214.911 1148.29 216.417C1148.79 217.671 1148.42 218.55 1147.16 219.051L1108.4 237.494ZM1040.65 237.87C1031.11 237.87 1023.84 235.361 1018.82 230.343C1013.8 225.073 1011.29 218.926 1011.29 211.9C1011.29 206.882 1012.55 202.365 1015.05 198.351C1017.81 194.085 1022.08 190.196 1027.85 186.683C1033.62 183.17 1041.02 179.783 1050.06 176.521L1095.22 159.584L1096.35 164.477L1056.46 179.908C1051.94 181.665 1048.18 183.672 1045.16 185.93C1042.15 188.189 1039.9 190.698 1038.39 193.458C1037.14 196.218 1036.51 199.229 1036.51 202.491C1036.51 208.262 1038.39 213.28 1042.15 217.546C1045.92 221.811 1051.06 223.944 1057.59 223.944C1060.09 223.944 1062.73 223.568 1065.49 222.815C1068.25 222.062 1071.64 220.431 1075.65 217.922L1099.36 203.62L1100.12 208.513L1072.26 226.579C1066.24 230.594 1060.72 233.479 1055.7 235.236C1050.94 236.992 1045.92 237.87 1040.65 237.87Z" fill="#f4f0e8"/>
<path d="M933.791 239.752C927.769 239.752 921.998 238.748 916.478 236.741C910.957 234.984 906.441 231.848 902.928 227.331C899.415 222.815 897.659 216.667 897.659 208.889V120.44C897.659 114.418 897.282 109.902 896.53 106.891C895.777 103.88 894.02 101.998 891.26 101.245C888.5 100.241 884.235 99.7394 878.463 99.7394C877.46 99.7394 876.958 98.9867 876.958 97.4812C876.958 95.7248 877.46 94.8465 878.463 94.8465C888.5 94.5956 896.655 91.8355 902.928 86.5663C909.452 81.297 913.09 74.5222 913.843 66.2419C913.843 65.4892 914.721 65.1128 916.478 65.1128C918.485 65.1128 919.489 65.4892 919.489 66.2419V196.092C919.489 206.38 921.998 214.032 927.016 219.051C932.285 224.069 939.687 226.578 949.222 226.578C955.746 226.578 961.517 225.575 966.536 223.567C971.805 221.309 976.07 218.8 979.332 216.04C980.336 215.538 981.214 215.914 981.967 217.169C982.971 218.173 982.971 219.051 981.967 219.804C972.683 226.829 964.277 231.973 956.75 235.235C949.473 238.246 941.82 239.752 933.791 239.752ZM970.299 108.396C960.514 105.887 951.104 104.256 942.071 103.503C933.038 102.75 923.378 102.374 913.09 102.374V94.0938C923.127 94.0938 932.787 93.7174 942.071 92.9647C951.355 92.2119 961.266 91.3337 971.805 90.33C972.307 90.33 972.809 91.2082 973.31 92.9647C974.063 94.7211 974.439 96.8539 974.439 99.3631C974.439 101.12 973.938 103.127 972.934 105.385C972.181 107.643 971.303 108.647 970.299 108.396Z" fill="#f4f0e8"/>
<path d="M691.065 238.623C684.792 238.623 680.777 235.863 679.021 230.343C677.515 224.822 678.017 215.288 680.526 201.738L691.441 141.894C693.95 127.592 694.201 117.053 692.194 110.279C690.187 103.253 685.67 99.74 678.644 99.74C671.117 99.74 662.962 104.884 654.18 115.171C645.649 125.208 637.494 140.138 629.715 159.96C622.188 179.783 615.789 203.996 610.52 232.601L606.38 232.225C611.398 202.867 618.173 177.148 626.704 155.067C635.486 132.736 645.398 115.548 656.438 103.504C667.478 91.2088 679.021 85.0613 691.065 85.0613C701.102 85.0613 707.751 88.9505 711.013 96.729C714.526 104.507 714.651 117.179 711.389 134.743L699.345 201.738C698.09 209.266 697.965 214.786 698.969 218.299C700.223 221.811 702.356 223.568 705.367 223.568C708.378 223.568 711.891 222.062 715.906 219.051C720.171 215.789 724.939 211.524 730.208 206.255C731.212 205.251 732.215 205.251 733.219 206.255C734.223 207.258 734.223 208.262 733.219 209.266C725.19 218.55 717.788 225.826 711.013 231.095C704.238 236.114 697.589 238.623 691.065 238.623ZM516.05 238.247C512.286 238.247 509.902 237.996 508.898 237.494C507.895 237.243 507.393 236.741 507.393 235.988C507.393 234.985 508.02 231.723 509.275 226.203C510.529 220.682 511.659 215.037 512.662 209.266L528.47 123.452C530.979 108.648 528.846 101.245 522.072 101.245C519.312 101.245 515.673 102.751 511.157 105.762C506.64 108.773 501.622 113.039 496.102 118.559C495.349 119.562 494.345 119.562 493.091 118.559C492.087 117.304 492.087 116.301 493.091 115.548C501.622 105.762 509.4 98.4854 516.426 93.7179C523.703 88.9505 530.603 86.5668 537.127 86.5668C543.149 86.5668 546.913 89.3269 548.418 94.8471C550.174 100.116 549.924 109.4 547.665 122.699L528.094 232.601C527.09 236.365 523.075 238.247 516.05 238.247ZM598.852 238.247C595.34 238.247 592.956 237.996 591.701 237.494C590.698 237.243 590.196 236.741 590.196 235.988C590.196 234.985 590.823 231.472 592.078 225.45C593.583 219.177 594.838 213.155 595.841 207.384L608.262 141.894C610.269 127.592 610.269 117.053 608.262 110.279C606.505 103.253 602.365 99.74 595.841 99.74C588.314 99.74 580.159 104.884 571.377 115.171C562.846 125.459 554.691 140.64 546.913 160.713C539.385 180.535 533.112 204.498 528.094 232.601L523.201 232.225C528.219 202.867 534.994 177.148 543.525 155.067C552.307 132.987 562.218 115.799 573.259 103.504C584.55 91.2088 596.218 85.0613 608.262 85.0613C617.797 85.0613 624.321 88.9505 627.834 96.729C631.597 104.256 631.723 116.928 628.21 134.743L610.52 232.601C610.018 236.365 606.129 238.247 598.852 238.247Z" fill="#f4f0e8"/>
<path d="M401.913 133.237L400.408 129.097C409.692 117.806 417.345 109.149 423.367 103.127C429.389 96.854 434.532 92.5884 438.798 90.3302C443.315 87.821 447.58 86.5664 451.595 86.5664C456.864 86.5664 462.008 88.0719 467.026 91.0829C472.296 94.094 474.93 97.7323 474.93 101.998C474.93 105.26 473.801 108.02 471.543 110.278C469.535 112.536 466.524 113.666 462.51 113.666C459.248 113.666 456.488 112.662 454.229 110.655C451.971 108.647 449.587 106.765 447.078 105.009C444.569 103.252 441.307 102.374 437.293 102.374C435.034 102.374 432.651 103.002 430.141 104.256C427.632 105.511 424.245 108.396 419.979 112.913C415.714 117.178 409.692 123.953 401.913 133.237ZM365.028 235.235C364.275 235.235 363.899 234.482 363.899 232.977C363.899 231.471 364.275 230.719 365.028 230.719C374.814 230.719 381.087 229.088 383.847 225.826C386.858 222.313 388.364 215.287 388.364 204.749V130.226C388.364 121.946 387.36 115.924 385.353 112.16C383.596 108.145 380.209 106.138 375.19 106.138C372.681 106.138 369.67 106.64 366.157 107.643C362.895 108.647 359.132 110.027 354.866 111.784C353.862 112.035 352.984 111.533 352.231 110.278C351.73 109.024 351.98 108.145 352.984 107.643L396.644 86.9428C397.397 86.6919 398.149 86.5664 398.902 86.5664C400.659 86.5664 402.917 89.201 405.677 94.4703C408.437 99.7396 409.817 107.393 409.817 117.429V204.749C409.817 211.774 410.695 217.295 412.452 221.309C414.208 225.073 417.721 227.582 422.99 228.837C428.259 230.091 436.038 230.719 446.326 230.719C447.329 230.719 447.831 231.471 447.831 232.977C447.831 234.482 447.329 235.235 446.326 235.235C440.304 235.235 433.152 235.11 424.872 234.859C416.843 234.608 408.311 234.482 399.278 234.482C392.755 234.482 386.482 234.608 380.46 234.859C374.438 235.11 369.294 235.235 365.028 235.235Z" fill="#f4f0e8"/>
<path d="M254.927 240.128C240.122 240.128 227.2 236.49 216.16 229.214C205.119 221.937 196.588 212.277 190.566 200.233C184.544 187.938 181.533 174.764 181.533 160.713C181.533 147.665 183.917 136.374 188.684 126.839C193.452 117.304 199.85 109.526 207.88 103.504C215.909 97.2308 224.566 92.5888 233.85 89.5778C243.384 86.5668 252.668 85.0613 261.701 85.0613C277.007 85.0613 290.055 88.8251 300.845 96.3526C311.885 103.88 320.291 113.54 326.062 125.334C331.833 137.127 334.719 149.547 334.719 162.595C334.719 178.654 331.08 192.454 323.804 203.996C316.527 215.539 306.867 224.446 294.823 230.719C282.779 236.992 269.48 240.128 254.927 240.128ZM265.842 232.977C279.14 232.977 289.679 228.335 297.457 219.051C305.236 209.516 309.125 194.211 309.125 173.133C309.125 157.326 306.49 143.4 301.221 131.356C296.203 119.061 289.177 109.526 280.144 102.751C271.111 95.7253 260.823 92.2124 249.281 92.2124C235.982 92.2124 225.569 97.1053 218.042 106.891C210.514 116.677 206.75 130.728 206.75 149.045C206.75 164.351 209.26 178.403 214.278 191.199C219.296 203.996 226.197 214.158 234.979 221.686C244.012 229.214 254.299 232.977 265.842 232.977Z" fill="#f4f0e8"/>
<path d="M0.752753 235.235C0.250917 235.235 0 234.483 0 232.977C0 231.472 0.250917 230.719 0.752753 230.719C10.0367 230.719 16.9369 230.092 21.4535 228.837C26.2209 227.582 29.3574 225.073 30.8629 221.309C32.6193 217.546 33.4975 212.025 33.4975 204.749V30.4865C33.4975 23.2099 32.6193 17.8152 30.8629 14.3023C29.3574 10.5385 26.3464 8.02934 21.8298 6.77476C17.3133 5.26925 10.4131 4.51651 1.12913 4.51651C0.627293 4.51651 0.376376 3.76376 0.376376 2.25826C0.376376 0.752756 0.627293 0 1.12913 0H152.433C154.691 0 155.82 1.12912 155.82 3.38737L156.573 49.6817C156.573 50.4345 155.82 50.9363 154.314 51.1872C153.06 51.1872 152.433 50.8108 152.433 50.0581C151.68 36.5085 147.54 26.0954 140.012 18.8188C132.736 11.5422 123.201 7.90389 111.407 7.90389H88.4485C75.9026 7.90389 67.6223 9.40941 63.6077 12.4204C59.593 15.4314 57.5856 21.5789 57.5856 30.8629V203.243C57.5856 210.771 58.5893 216.542 60.5966 220.557C62.8549 224.32 67.246 226.955 73.7698 228.461C80.5446 229.966 90.4559 230.719 103.504 230.719C104.256 230.719 104.633 231.472 104.633 232.977C104.633 234.483 104.256 235.235 103.504 235.235C95.2233 235.235 86.3157 235.11 76.7808 234.859C67.4969 234.608 57.0838 234.483 45.5416 234.483C37.2613 234.483 29.2319 234.608 21.4535 234.859C13.675 235.11 6.77478 235.235 0.752753 235.235ZM133.237 152.056C133.237 141.016 130.226 133.112 124.204 128.344C118.433 123.577 108.647 121.193 94.8469 121.193H46.2943V113.289H95.9761C109.275 113.289 118.684 111.157 124.204 106.891C129.975 102.625 132.861 95.976 132.861 86.943C132.861 86.4412 133.614 86.1903 135.119 86.1903C136.625 86.1903 137.377 86.4412 137.377 86.943C137.377 94.4705 137.252 100.367 137.001 104.633C137.001 108.647 137.001 112.913 137.001 117.43C137.001 123.201 137.127 128.846 137.377 134.366C137.628 139.887 137.754 145.783 137.754 152.056C137.754 152.558 137.001 152.809 135.496 152.809C133.99 152.809 133.237 152.558 133.237 152.056Z" fill="#f4f0e8"/>
<path d="M834.904 84.6843C844.187 84.6844 850.962 86.5661 855.228 90.3298C859.744 93.8427 861.5 98.7357 860.496 105.009C859.242 111.031 855.729 116.802 849.958 122.322C844.187 127.842 836.785 132.86 827.752 137.377C818.719 141.642 808.557 145.407 797.266 148.669C789.046 151.097 780.548 152.967 771.773 154.283C769.381 167.784 770.632 180.505 770.632 192.892C770.632 201.271 770.632 209.649 780.597 218.027C780.856 218.202 781.107 218.389 781.347 218.589C782.075 219.163 782.768 219.706 783.433 220.217C783.856 220.518 784.294 220.819 784.746 221.121L784.705 221.181C794.041 228.176 797.612 228.453 811.288 225.976L811.287 225.978C811.419 225.954 811.551 225.933 811.685 225.915L812.303 225.823C818.627 224.825 823.803 221.912 822.501 209.166C822.42 208.457 822.378 207.737 822.378 207.007C822.378 196.614 830.803 188.188 841.196 188.188C851.59 188.188 860.016 196.613 860.016 207.007C860.016 217.4 851.59 225.826 841.196 225.826C840.523 225.826 839.858 225.789 839.202 225.719C825.904 224.313 823.206 229.894 822.292 236.521L822.291 236.52C821.664 241.109 817.732 244.644 812.972 244.644C810.764 244.644 808.735 243.882 807.13 242.609L807.129 242.616C794.951 232.986 792.281 232.317 777.004 235.084C776.463 235.181 775.906 235.234 775.336 235.234V235.235L775.333 235.234V235.235L775.331 235.234C751.813 235.23 750.264 208.34 748.713 201.361C746.455 190.07 746.58 178.026 749.089 165.229C750.595 155.945 753.857 146.536 758.875 137.001C764.144 127.215 770.668 118.432 778.446 110.654C786.225 102.876 794.882 96.6031 804.416 91.8357C813.951 87.0683 824.114 84.6843 834.904 84.6843ZM818.343 94.8464C809.812 94.8464 802.409 97.4815 796.136 102.751C789.863 108.02 784.72 115.046 780.705 123.828C777.174 131.553 774.516 139.958 772.732 149.043C787.986 146.289 801.058 142.401 811.945 137.377C825.243 131.104 833.021 122.949 835.28 112.913C837.036 106.138 835.906 101.495 831.892 98.9861C827.877 96.2263 823.361 94.8465 818.343 94.8464Z" fill="#f4f0e8"/>
</svg>
