<svg xmlns="http://www.w3.org/2000/svg" viewBox="0 0 160 200" width="160" height="200">
  <!-- Silueta de la gota construida por puntos a lo largo del contorno -->
  <g fill="#2C2C28">
    <circle cx="80" cy="14" r="1.6"/>
    <circle cx="86" cy="20" r="1.4"/>
    <circle cx="92" cy="28" r="1.4"/>
    <circle cx="97" cy="36" r="1.4"/>
    <circle cx="101" cy="44" r="1.4"/>
    <circle cx="105" cy="52" r="1.4"/>
    <circle cx="108" cy="60" r="1.4"/>
    <circle cx="111" cy="68" r="1.4"/>
    <circle cx="114" cy="76" r="1.4"/>
    <circle cx="116" cy="84" r="1.4"/>
    <circle cx="118" cy="92" r="1.4"/>
    <circle cx="120" cy="100" r="1.5"/>
    <circle cx="122" cy="110" r="1.5"/>
    <circle cx="122" cy="120" r="1.5"/>
    <circle cx="122" cy="130" r="1.5"/>
    <circle cx="120" cy="140" r="1.5"/>
    <circle cx="117" cy="150" r="1.5"/>
    <circle cx="112" cy="158" r="1.5"/>
    <circle cx="105" cy="165" r="1.5"/>
    <circle cx="97" cy="171" r="1.4"/>
    <circle cx="88" cy="176" r="1.4"/>
    <circle cx="80" cy="178" r="1.6"/>
    <circle cx="72" cy="176" r="1.4"/>
    <circle cx="63" cy="171" r="1.4"/>
    <circle cx="55" cy="165" r="1.5"/>
    <circle cx="48" cy="158" r="1.5"/>
    <circle cx="43" cy="150" r="1.5"/>
    <circle cx="40" cy="140" r="1.5"/>
    <circle cx="38" cy="130" r="1.5"/>
    <circle cx="38" cy="120" r="1.5"/>
    <circle cx="38" cy="110" r="1.5"/>
    <circle cx="40" cy="100" r="1.5"/>
    <circle cx="42" cy="92" r="1.4"/>
    <circle cx="44" cy="84" r="1.4"/>
    <circle cx="46" cy="76" r="1.4"/>
    <circle cx="49" cy="68" r="1.4"/>
    <circle cx="52" cy="60" r="1.4"/>
    <circle cx="55" cy="52" r="1.4"/>
    <circle cx="59" cy="44" r="1.4"/>
    <circle cx="63" cy="36" r="1.4"/>
    <circle cx="68" cy="28" r="1.4"/>
    <circle cx="74" cy="20" r="1.4"/>
  </g>
  <circle cx="80" cy="130" r="5" fill="#B8896A"/>
</svg>
