<svg xmlns="http://www.w3.org/2000/svg" viewBox="0 0 200 240">
  
  <circle cx="45" cy="55" r="1.61" fill="#2C2C28" opacity="0.95"></circle>
  <circle cx="50" cy="55" r="1.48" fill="#2C2C28" opacity="0.72"></circle>
  <circle cx="55" cy="55" r="1.43" fill="#2C2C28" opacity="0.78"></circle>
  <circle cx="60" cy="55" r="1.19" fill="#2C2C28" opacity="0.99"></circle>
  <circle cx="65" cy="55" r="0.72" fill="#2C2C28" opacity="0.66"></circle>
  <circle cx="70" cy="55" r="1.64" fill="#2C2C28" opacity="0.77"></circle>
  <circle cx="75" cy="55" r="1.80" fill="#2C2C28" opacity="0.96"></circle>
  <circle cx="80" cy="55" r="1.10" fill="#2C2C28" opacity="0.95"></circle>
  <circle cx="85" cy="55" r="1.31" fill="#2C2C28" opacity="0.70"></circle>
  <circle cx="90" cy="55" r="1.18" fill="#B8896A" opacity="0.78"></circle>
  <circle cx="95" cy="55" r="1.39" fill="#2C2C28" opacity="0.76"></circle>
  <circle cx="100" cy="55" r="1.84" fill="#B8896A" opacity="0.99"></circle>
  <circle cx="105" cy="55" r="1.51" fill="#2C2C28" opacity="1.00"></circle>
  <circle cx="110" cy="55" r="0.92" fill="#B8896A" opacity="0.76"></circle>
  <circle cx="115" cy="55" r="1.11" fill="#B8896A" opacity="0.70"></circle>
  <circle cx="120" cy="55" r="0.70" fill="#2C2C28" opacity="0.66"></circle>
  <circle cx="125" cy="55" r="0.95" fill="#2C2C28" opacity="0.71"></circle>
  <circle cx="130" cy="55" r="0.74" fill="#B8896A" opacity="0.68"></circle>
  <circle cx="135" cy="55" r="0.97" fill="#2C2C28" opacity="0.86"></circle>
  <circle cx="140" cy="55" r="1.42" fill="#2C2C28" opacity="0.70"></circle>
  <circle cx="145" cy="55" r="1.33" fill="#2C2C28" opacity="0.92"></circle>
  <circle cx="150" cy="55" r="1.56" fill="#2C2C28" opacity="0.94"></circle>
  <circle cx="155" cy="55" r="0.77" fill="#2C2C28" opacity="0.98"></circle>
  <circle cx="160" cy="55" r="1.69" fill="#2C2C28" opacity="0.76"></circle>
  <circle cx="45" cy="60" r="0.99" fill="#2C2C28" opacity="0.80"></circle>
  <circle cx="50" cy="60" r="1.09" fill="#2C2C28" opacity="0.85"></circle>
  <circle cx="55" cy="60" r="0.75" fill="#B8896A" opacity="0.87"></circle>
  <circle cx="60" cy="60" r="1.83" fill="#2C2C28" opacity="0.75"></circle>
  <circle cx="65" cy="60" r="1.94" fill="#2C2C28" opacity="0.87"></circle>
  <circle cx="70" cy="60" r="1.05" fill="#2C2C28" opacity="0.84"></circle>
  <circle cx="75" cy="60" r="1.32" fill="#2C2C28" opacity="0.68"></circle>
  <circle cx="80" cy="60" r="1.17" fill="#B8896A" opacity="0.83"></circle>
  <circle cx="85" cy="60" r="1.10" fill="#B8896A" opacity="0.66"></circle>
  <circle cx="90" cy="60" r="1.06" fill="#2C2C28" opacity="0.72"></circle>
  <circle cx="95" cy="60" r="0.62" fill="#B8896A" opacity="0.90"></circle>
  <circle cx="100" cy="60" r="0.69" fill="#2C2C28" opacity="0.66"></circle>
  <circle cx="105" cy="60" r="0.64" fill="#2C2C28" opacity="0.76"></circle>
  <circle cx="110" cy="60" r="1.85" fill="#2C2C28" opacity="0.84"></circle>
  <circle cx="115" cy="60" r="1.17" fill="#2C2C28" opacity="0.79"></circle>
  <circle cx="120" cy="60" r="1.03" fill="#B8896A" opacity="0.86"></circle>
  <circle cx="125" cy="60" r="1.04" fill="#B8896A" opacity="0.88"></circle>
  <circle cx="130" cy="60" r="0.63" fill="#2C2C28" opacity="0.77"></circle>
  <circle cx="135" cy="60" r="1.42" fill="#2C2C28" opacity="0.68"></circle>
  <circle cx="140" cy="60" r="1.11" fill="#2C2C28" opacity="0.93"></circle>
  <circle cx="145" cy="60" r="1.81" fill="#B8896A" opacity="0.73"></circle>
  <circle cx="150" cy="60" r="1.50" fill="#2C2C28" opacity="0.76"></circle>
  <circle cx="155" cy="60" r="1.93" fill="#B8896A" opacity="0.97"></circle>
  <circle cx="160" cy="60" r="1.38" fill="#2C2C28" opacity="0.91"></circle>
  <circle cx="65" cy="65" r="1.81" fill="#2C2C28" opacity="0.67"></circle>
  <circle cx="70" cy="65" r="1.06" fill="#2C2C28" opacity="0.90"></circle>
  <circle cx="75" cy="65" r="0.71" fill="#2C2C28" opacity="0.85"></circle>
  <circle cx="80" cy="65" r="1.49" fill="#2C2C28" opacity="0.85"></circle>
  <circle cx="85" cy="65" r="1.20" fill="#2C2C28" opacity="0.78"></circle>
  <circle cx="140" cy="65" r="1.47" fill="#2C2C28" opacity="0.81"></circle>
  <circle cx="145" cy="65" r="1.20" fill="#2C2C28" opacity="0.85"></circle>
  <circle cx="150" cy="65" r="0.92" fill="#2C2C28" opacity="0.73"></circle>
  <circle cx="155" cy="65" r="1.35" fill="#2C2C28" opacity="0.72"></circle>
  <circle cx="160" cy="65" r="1.49" fill="#2C2C28" opacity="0.80"></circle>
  <circle cx="65" cy="70" r="0.77" fill="#2C2C28" opacity="0.69"></circle>
  <circle cx="70" cy="70" r="1.82" fill="#2C2C28" opacity="0.92"></circle>
  <circle cx="75" cy="70" r="0.86" fill="#B8896A" opacity="0.97"></circle>
  <circle cx="80" cy="70" r="1.07" fill="#2C2C28" opacity="0.90"></circle>
  <circle cx="85" cy="70" r="1.47" fill="#2C2C28" opacity="0.99"></circle>
  <circle cx="145" cy="70" r="0.85" fill="#2C2C28" opacity="0.68"></circle>
  <circle cx="150" cy="70" r="0.99" fill="#B8896A" opacity="0.81"></circle>
  <circle cx="155" cy="70" r="1.34" fill="#2C2C28" opacity="0.74"></circle>
  <circle cx="160" cy="70" r="1.62" fill="#2C2C28" opacity="0.76"></circle>
  <circle cx="65" cy="75" r="0.60" fill="#2C2C28" opacity="0.92"></circle>
  <circle cx="70" cy="75" r="1.91" fill="#2C2C28" opacity="0.66"></circle>
  <circle cx="75" cy="75" r="0.62" fill="#2C2C28" opacity="0.90"></circle>
  <circle cx="80" cy="75" r="1.24" fill="#B8896A" opacity="0.66"></circle>
  <circle cx="85" cy="75" r="1.21" fill="#2C2C28" opacity="0.98"></circle>
  <circle cx="150" cy="75" r="0.70" fill="#2C2C28" opacity="0.79"></circle>
  <circle cx="155" cy="75" r="1.49" fill="#2C2C28" opacity="0.88"></circle>
  <circle cx="160" cy="75" r="1.89" fill="#2C2C28" opacity="0.65"></circle>
  <circle cx="65" cy="80" r="1.51" fill="#B8896A" opacity="0.77"></circle>
  <circle cx="70" cy="80" r="1.62" fill="#2C2C28" opacity="0.95"></circle>
  <circle cx="75" cy="80" r="1.17" fill="#B8896A" opacity="0.98"></circle>
  <circle cx="80" cy="80" r="1.37" fill="#2C2C28" opacity="0.92"></circle>
  <circle cx="85" cy="80" r="1.10" fill="#2C2C28" opacity="0.66"></circle>
  <circle cx="155" cy="80" r="1.76" fill="#2C2C28" opacity="0.84"></circle>
  <circle cx="160" cy="80" r="0.80" fill="#2C2C28" opacity="0.70"></circle>
  <circle cx="65" cy="85" r="1.45" fill="#2C2C28" opacity="0.78"></circle>
  <circle cx="70" cy="85" r="1.40" fill="#B8896A" opacity="0.88"></circle>
  <circle cx="75" cy="85" r="0.76" fill="#2C2C28" opacity="0.68"></circle>
  <circle cx="80" cy="85" r="0.91" fill="#2C2C28" opacity="0.92"></circle>
  <circle cx="85" cy="85" r="0.98" fill="#2C2C28" opacity="0.92"></circle>
  <circle cx="155" cy="85" r="0.95" fill="#2C2C28" opacity="0.68"></circle>
  <circle cx="160" cy="85" r="1.67" fill="#B8896A" opacity="0.84"></circle>
  <circle cx="65" cy="90" r="1.94" fill="#2C2C28" opacity="0.67"></circle>
  <circle cx="70" cy="90" r="1.46" fill="#B8896A" opacity="0.71"></circle>
  <circle cx="75" cy="90" r="1.15" fill="#2C2C28" opacity="0.68"></circle>
  <circle cx="80" cy="90" r="1.30" fill="#2C2C28" opacity="0.68"></circle>
  <circle cx="85" cy="90" r="1.53" fill="#2C2C28" opacity="0.85"></circle>
  <circle cx="155" cy="90" r="1.86" fill="#2C2C28" opacity="0.82"></circle>
  <circle cx="160" cy="90" r="1.72" fill="#B8896A" opacity="0.75"></circle>
  <circle cx="65" cy="95" r="1.60" fill="#2C2C28" opacity="0.91"></circle>
  <circle cx="70" cy="95" r="1.57" fill="#2C2C28" opacity="0.71"></circle>
  <circle cx="75" cy="95" r="1.25" fill="#2C2C28" opacity="0.81"></circle>
  <circle cx="80" cy="95" r="0.76" fill="#2C2C28" opacity="0.84"></circle>
  <circle cx="85" cy="95" r="1.08" fill="#B8896A" opacity="0.82"></circle>
  <circle cx="65" cy="100" r="1.41" fill="#2C2C28" opacity="0.69"></circle>
  <circle cx="70" cy="100" r="1.39" fill="#2C2C28" opacity="0.73"></circle>
  <circle cx="75" cy="100" r="0.83" fill="#2C2C28" opacity="0.90"></circle>
  <circle cx="80" cy="100" r="1.11" fill="#2C2C28" opacity="0.76"></circle>
  <circle cx="85" cy="100" r="1.16" fill="#2C2C28" opacity="0.70"></circle>
  <circle cx="135" cy="100" r="1.07" fill="#2C2C28" opacity="0.82"></circle>
  <circle cx="65" cy="105" r="0.72" fill="#2C2C28" opacity="0.81"></circle>
  <circle cx="70" cy="105" r="0.86" fill="#2C2C28" opacity="0.81"></circle>
  <circle cx="75" cy="105" r="1.92" fill="#2C2C28" opacity="0.93"></circle>
  <circle cx="80" cy="105" r="1.37" fill="#B8896A" opacity="0.83"></circle>
  <circle cx="85" cy="105" r="0.94" fill="#2C2C28" opacity="0.72"></circle>
  <circle cx="130" cy="105" r="0.73" fill="#2C2C28" opacity="0.69"></circle>
  <circle cx="135" cy="105" r="1.92" fill="#2C2C28" opacity="0.82"></circle>
  <circle cx="65" cy="110" r="1.63" fill="#B8896A" opacity="0.99"></circle>
  <circle cx="70" cy="110" r="1.90" fill="#2C2C28" opacity="0.98"></circle>
  <circle cx="75" cy="110" r="0.92" fill="#2C2C28" opacity="0.72"></circle>
  <circle cx="80" cy="110" r="1.68" fill="#2C2C28" opacity="0.98"></circle>
  <circle cx="85" cy="110" r="1.40" fill="#2C2C28" opacity="0.69"></circle>
  <circle cx="130" cy="110" r="1.43" fill="#2C2C28" opacity="0.83"></circle>
  <circle cx="135" cy="110" r="1.55" fill="#2C2C28" opacity="0.84"></circle>
  <circle cx="65" cy="115" r="0.60" fill="#2C2C28" opacity="0.84"></circle>
  <circle cx="70" cy="115" r="1.32" fill="#B8896A" opacity="0.77"></circle>
  <circle cx="75" cy="115" r="1.93" fill="#2C2C28" opacity="0.97"></circle>
  <circle cx="80" cy="115" r="1.58" fill="#2C2C28" opacity="0.80"></circle>
  <circle cx="85" cy="115" r="1.66" fill="#2C2C28" opacity="0.98"></circle>
  <circle cx="125" cy="115" r="1.98" fill="#2C2C28" opacity="0.68"></circle>
  <circle cx="130" cy="115" r="1.77" fill="#2C2C28" opacity="0.94"></circle>
  <circle cx="135" cy="115" r="1.36" fill="#2C2C28" opacity="0.90"></circle>
  <circle cx="65" cy="120" r="0.61" fill="#2C2C28" opacity="0.76"></circle>
  <circle cx="70" cy="120" r="1.29" fill="#2C2C28" opacity="0.98"></circle>
  <circle cx="75" cy="120" r="1.02" fill="#2C2C28" opacity="0.94"></circle>
  <circle cx="80" cy="120" r="1.43" fill="#2C2C28" opacity="0.89"></circle>
  <circle cx="85" cy="120" r="1.14" fill="#2C2C28" opacity="0.80"></circle>
  <circle cx="120" cy="120" r="1.79" fill="#2C2C28" opacity="0.92"></circle>
  <circle cx="125" cy="120" r="1.14" fill="#2C2C28" opacity="0.87"></circle>
  <circle cx="130" cy="120" r="1.13" fill="#2C2C28" opacity="0.95"></circle>
  <circle cx="135" cy="120" r="1.61" fill="#2C2C28" opacity="0.86"></circle>
  <circle cx="65" cy="125" r="1.17" fill="#2C2C28" opacity="0.89"></circle>
  <circle cx="70" cy="125" r="1.32" fill="#B8896A" opacity="0.85"></circle>
  <circle cx="75" cy="125" r="1.06" fill="#2C2C28" opacity="0.82"></circle>
  <circle cx="80" cy="125" r="0.66" fill="#2C2C28" opacity="0.71"></circle>
  <circle cx="85" cy="125" r="0.98" fill="#B8896A" opacity="0.83"></circle>
  <circle cx="90" cy="125" r="1.30" fill="#2C2C28" opacity="0.74"></circle>
  <circle cx="95" cy="125" r="0.96" fill="#2C2C28" opacity="0.68"></circle>
  <circle cx="100" cy="125" r="1.90" fill="#B8896A" opacity="0.98"></circle>
  <circle cx="105" cy="125" r="1.91" fill="#B8896A" opacity="0.84"></circle>
  <circle cx="110" cy="125" r="0.88" fill="#2C2C28" opacity="0.66"></circle>
  <circle cx="115" cy="125" r="1.17" fill="#2C2C28" opacity="0.99"></circle>
  <circle cx="120" cy="125" r="1.63" fill="#B8896A" opacity="0.91"></circle>
  <circle cx="125" cy="125" r="1.70" fill="#2C2C28" opacity="0.68"></circle>
  <circle cx="130" cy="125" r="1.15" fill="#B8896A" opacity="0.80"></circle>
  <circle cx="135" cy="125" r="1.07" fill="#2C2C28" opacity="0.72"></circle>
  <circle cx="65" cy="130" r="0.69" fill="#2C2C28" opacity="0.82"></circle>
  <circle cx="70" cy="130" r="1.28" fill="#B8896A" opacity="0.85"></circle>
  <circle cx="75" cy="130" r="1.45" fill="#2C2C28" opacity="0.80"></circle>
  <circle cx="80" cy="130" r="1.48" fill="#B8896A" opacity="0.96"></circle>
  <circle cx="85" cy="130" r="1.65" fill="#2C2C28" opacity="0.82"></circle>
  <circle cx="90" cy="130" r="1.12" fill="#2C2C28" opacity="0.70"></circle>
  <circle cx="95" cy="130" r="1.79" fill="#2C2C28" opacity="0.69"></circle>
  <circle cx="100" cy="130" r="1.91" fill="#B8896A" opacity="0.80"></circle>
  <circle cx="105" cy="130" r="0.70" fill="#2C2C28" opacity="0.73"></circle>
  <circle cx="110" cy="130" r="1.44" fill="#2C2C28" opacity="0.70"></circle>
  <circle cx="115" cy="130" r="1.61" fill="#2C2C28" opacity="0.84"></circle>
  <circle cx="120" cy="130" r="1.62" fill="#2C2C28" opacity="0.69"></circle>
  <circle cx="125" cy="130" r="1.67" fill="#B8896A" opacity="0.72"></circle>
  <circle cx="130" cy="130" r="1.31" fill="#2C2C28" opacity="0.91"></circle>
  <circle cx="135" cy="130" r="0.87" fill="#2C2C28" opacity="0.96"></circle>
  <circle cx="65" cy="135" r="1.93" fill="#2C2C28" opacity="0.72"></circle>
  <circle cx="70" cy="135" r="1.10" fill="#2C2C28" opacity="0.92"></circle>
  <circle cx="75" cy="135" r="0.97" fill="#2C2C28" opacity="0.97"></circle>
  <circle cx="80" cy="135" r="0.66" fill="#B8896A" opacity="0.78"></circle>
  <circle cx="85" cy="135" r="0.86" fill="#2C2C28" opacity="0.75"></circle>
  <circle cx="125" cy="135" r="1.95" fill="#2C2C28" opacity="0.83"></circle>
  <circle cx="130" cy="135" r="1.29" fill="#2C2C28" opacity="0.80"></circle>
  <circle cx="135" cy="135" r="1.61" fill="#2C2C28" opacity="0.91"></circle>
  <circle cx="65" cy="140" r="1.01" fill="#2C2C28" opacity="0.92"></circle>
  <circle cx="70" cy="140" r="0.94" fill="#B8896A" opacity="0.91"></circle>
  <circle cx="75" cy="140" r="0.77" fill="#2C2C28" opacity="0.90"></circle>
  <circle cx="80" cy="140" r="1.81" fill="#2C2C28" opacity="0.86"></circle>
  <circle cx="85" cy="140" r="1.40" fill="#2C2C28" opacity="0.90"></circle>
  <circle cx="130" cy="140" r="0.65" fill="#2C2C28" opacity="0.72"></circle>
  <circle cx="135" cy="140" r="1.90" fill="#2C2C28" opacity="0.97"></circle>
  <circle cx="65" cy="145" r="1.76" fill="#2C2C28" opacity="0.66"></circle>
  <circle cx="70" cy="145" r="0.90" fill="#2C2C28" opacity="0.91"></circle>
  <circle cx="75" cy="145" r="1.47" fill="#2C2C28" opacity="0.95"></circle>
  <circle cx="80" cy="145" r="1.98" fill="#B8896A" opacity="0.84"></circle>
  <circle cx="85" cy="145" r="1.79" fill="#B8896A" opacity="0.75"></circle>
  <circle cx="130" cy="145" r="1.37" fill="#2C2C28" opacity="0.70"></circle>
  <circle cx="135" cy="145" r="1.58" fill="#2C2C28" opacity="0.88"></circle>
  <circle cx="65" cy="150" r="0.93" fill="#2C2C28" opacity="0.90"></circle>
  <circle cx="70" cy="150" r="1.86" fill="#B8896A" opacity="0.91"></circle>
  <circle cx="75" cy="150" r="0.71" fill="#B8896A" opacity="0.68"></circle>
  <circle cx="80" cy="150" r="1.07" fill="#2C2C28" opacity="0.67"></circle>
  <circle cx="85" cy="150" r="1.64" fill="#2C2C28" opacity="0.68"></circle>
  <circle cx="130" cy="150" r="0.65" fill="#2C2C28" opacity="0.85"></circle>
  <circle cx="135" cy="150" r="0.72" fill="#2C2C28" opacity="0.65"></circle>
  <circle cx="65" cy="155" r="1.02" fill="#2C2C28" opacity="0.68"></circle>
  <circle cx="70" cy="155" r="1.13" fill="#B8896A" opacity="0.78"></circle>
  <circle cx="75" cy="155" r="1.92" fill="#2C2C28" opacity="1.00"></circle>
  <circle cx="80" cy="155" r="1.11" fill="#B8896A" opacity="0.83"></circle>
  <circle cx="85" cy="155" r="1.30" fill="#2C2C28" opacity="0.75"></circle>
  <circle cx="135" cy="155" r="1.06" fill="#2C2C28" opacity="0.66"></circle>
  <circle cx="65" cy="160" r="1.70" fill="#B8896A" opacity="0.77"></circle>
  <circle cx="70" cy="160" r="0.73" fill="#B8896A" opacity="0.76"></circle>
  <circle cx="75" cy="160" r="1.85" fill="#B8896A" opacity="0.91"></circle>
  <circle cx="80" cy="160" r="0.84" fill="#2C2C28" opacity="0.90"></circle>
  <circle cx="85" cy="160" r="1.90" fill="#2C2C28" opacity="0.74"></circle>
  <circle cx="65" cy="165" r="1.92" fill="#2C2C28" opacity="0.77"></circle>
  <circle cx="70" cy="165" r="1.26" fill="#2C2C28" opacity="0.89"></circle>
  <circle cx="75" cy="165" r="0.89" fill="#2C2C28" opacity="0.79"></circle>
  <circle cx="80" cy="165" r="1.80" fill="#2C2C28" opacity="0.79"></circle>
  <circle cx="85" cy="165" r="1.68" fill="#2C2C28" opacity="0.84"></circle>
  <circle cx="65" cy="170" r="1.27" fill="#2C2C28" opacity="0.96"></circle>
  <circle cx="70" cy="170" r="1.15" fill="#2C2C28" opacity="0.81"></circle>
  <circle cx="75" cy="170" r="1.01" fill="#2C2C28" opacity="0.97"></circle>
  <circle cx="80" cy="170" r="1.36" fill="#2C2C28" opacity="0.94"></circle>
  <circle cx="85" cy="170" r="1.39" fill="#B8896A" opacity="0.65"></circle>
  <circle cx="65" cy="175" r="1.44" fill="#B8896A" opacity="0.86"></circle>
  <circle cx="70" cy="175" r="1.17" fill="#2C2C28" opacity="0.84"></circle>
  <circle cx="75" cy="175" r="1.45" fill="#B8896A" opacity="0.65"></circle>
  <circle cx="80" cy="175" r="1.67" fill="#B8896A" opacity="0.81"></circle>
  <circle cx="85" cy="175" r="0.88" fill="#2C2C28" opacity="0.79"></circle>
  <circle cx="65" cy="180" r="1.36" fill="#2C2C28" opacity="1.00"></circle>
  <circle cx="70" cy="180" r="0.82" fill="#B8896A" opacity="0.95"></circle>
  <circle cx="75" cy="180" r="0.73" fill="#2C2C28" opacity="0.97"></circle>
  <circle cx="80" cy="180" r="0.99" fill="#2C2C28" opacity="0.89"></circle>
  <circle cx="85" cy="180" r="1.48" fill="#2C2C28" opacity="0.88"></circle>
  <circle cx="65" cy="185" r="1.35" fill="#2C2C28" opacity="0.77"></circle>
  <circle cx="70" cy="185" r="1.13" fill="#2C2C28" opacity="0.97"></circle>
  <circle cx="75" cy="185" r="0.80" fill="#2C2C28" opacity="0.67"></circle>
  <circle cx="80" cy="185" r="0.96" fill="#B8896A" opacity="0.89"></circle>
  <circle cx="85" cy="185" r="1.90" fill="#2C2C28" opacity="0.84"></circle>
  <circle cx="65" cy="190" r="0.70" fill="#2C2C28" opacity="0.79"></circle>
  <circle cx="70" cy="190" r="1.50" fill="#B8896A" opacity="0.89"></circle>
  <circle cx="75" cy="190" r="0.95" fill="#2C2C28" opacity="0.95"></circle>
  <circle cx="80" cy="190" r="1.35" fill="#2C2C28" opacity="0.76"></circle>
  <circle cx="85" cy="190" r="1.97" fill="#B8896A" opacity="0.85"></circle>
  <circle cx="60" cy="195" r="1.20" fill="#2C2C28" opacity="0.83"></circle>
  <circle cx="65" cy="195" r="1.51" fill="#B8896A" opacity="0.90"></circle>
  <circle cx="70" cy="195" r="1.27" fill="#2C2C28" opacity="0.87"></circle>
  <circle cx="75" cy="195" r="0.91" fill="#B8896A" opacity="0.77"></circle>
  <circle cx="80" cy="195" r="1.62" fill="#2C2C28" opacity="0.84"></circle>
  <circle cx="85" cy="195" r="1.78" fill="#2C2C28" opacity="0.88"></circle>
  <circle cx="90" cy="195" r="0.72" fill="#2C2C28" opacity="0.86"></circle>
  <circle cx="95" cy="195" r="0.99" fill="#2C2C28" opacity="0.95"></circle>
  <circle cx="45" cy="200" r="1.56" fill="#2C2C28" opacity="0.83"></circle>
  <circle cx="50" cy="200" r="1.20" fill="#2C2C28" opacity="0.78"></circle>
  <circle cx="55" cy="200" r="0.70" fill="#2C2C28" opacity="0.88"></circle>
  <circle cx="60" cy="200" r="0.65" fill="#2C2C28" opacity="0.93"></circle>
  <circle cx="65" cy="200" r="1.17" fill="#B8896A" opacity="0.80"></circle>
  <circle cx="70" cy="200" r="1.54" fill="#2C2C28" opacity="1.00"></circle>
  <circle cx="75" cy="200" r="1.46" fill="#2C2C28" opacity="0.73"></circle>
  <circle cx="80" cy="200" r="1.37" fill="#B8896A" opacity="0.87"></circle>
  <circle cx="85" cy="200" r="1.79" fill="#B8896A" opacity="0.99"></circle>
  <circle cx="90" cy="200" r="0.72" fill="#2C2C28" opacity="0.70"></circle>
  <circle cx="95" cy="200" r="1.61" fill="#2C2C28" opacity="0.86"></circle>
  <circle cx="100" cy="200" r="1.03" fill="#2C2C28" opacity="0.87"></circle>
  <circle cx="105" cy="200" r="1.24" fill="#2C2C28" opacity="0.89"></circle>
</svg>