<svg xmlns="http://www.w3.org/2000/svg" viewBox="0 0 340 160">
  <rect width="100%" height="100%" fill="#f4f0e8" />
  <circle cx="76" cy="64" r="1.55" fill="#2c2c28" opacity="0.83" />
  <circle cx="80" cy="64" r="0.55" fill="#2c2c28" opacity="0.69" />
  <circle cx="96" cy="64" r="0.63" fill="#2c2c28" opacity="0.97" />
  <circle cx="100" cy="64" r="1.81" fill="#b8896a" opacity="0.86" />
  <circle cx="156" cy="64" r="1.38" fill="#2c2c28" opacity="0.98" />
  <circle cx="160" cy="64" r="2.00" fill="#2c2c28" opacity="0.93" />
  <circle cx="164" cy="64" r="0.59" fill="#b8896a" opacity="0.69" />
  <circle cx="184" cy="64" r="0.84" fill="#2c2c28" opacity="0.74" />
  <circle cx="188" cy="64" r="1.54" fill="#2c2c28" opacity="0.67" />
  <circle cx="192" cy="64" r="0.95" fill="#2c2c28" opacity="0.70" />
  <circle cx="80" cy="68" r="1.05" fill="#2c2c28" opacity="0.90" />
  <circle cx="100" cy="68" r="1.80" fill="#b8896a" opacity="0.71" />
  <circle cx="160" cy="68" r="0.93" fill="#2c2c28" opacity="0.69" />
  <circle cx="164" cy="68" r="0.97" fill="#2c2c28" opacity="0.85" />
  <circle cx="184" cy="68" r="0.76" fill="#2c2c28" opacity="0.87" />
  <circle cx="188" cy="68" r="1.28" fill="#2c2c28" opacity="0.79" />
  <circle cx="232" cy="68" r="1.16" fill="#2c2c28" opacity="0.70" />
  <circle cx="80" cy="72" r="1.82" fill="#2c2c28" opacity="0.68" />
  <circle cx="112" cy="72" r="1.25" fill="#b8896a" opacity="0.69" />
  <circle cx="116" cy="72" r="1.07" fill="#2c2c28" opacity="0.77" />
  <circle cx="132" cy="72" r="0.51" fill="#2c2c28" opacity="0.88" />
  <circle cx="136" cy="72" r="0.83" fill="#b8896a" opacity="0.90" />
  <circle cx="144" cy="72" r="1.66" fill="#2c2c28" opacity="0.79" />
  <circle cx="148" cy="72" r="1.46" fill="#2c2c28" opacity="0.87" />
  <circle cx="160" cy="72" r="0.77" fill="#2c2c28" opacity="0.66" />
  <circle cx="164" cy="72" r="0.96" fill="#b8896a" opacity="0.68" />
  <circle cx="168" cy="72" r="1.82" fill="#b8896a" opacity="0.74" />
  <circle cx="188" cy="72" r="1.36" fill="#2c2c28" opacity="0.89" />
  <circle cx="212" cy="72" r="1.21" fill="#2c2c28" opacity="0.91" />
  <circle cx="216" cy="72" r="1.88" fill="#2c2c28" opacity="0.83" />
  <circle cx="228" cy="72" r="1.32" fill="#2c2c28" opacity="0.78" />
  <circle cx="232" cy="72" r="1.85" fill="#2c2c28" opacity="0.76" />
  <circle cx="236" cy="72" r="1.87" fill="#b8896a" opacity="0.97" />
  <circle cx="240" cy="72" r="1.72" fill="#2c2c28" opacity="0.75" />
  <circle cx="252" cy="72" r="1.53" fill="#2c2c28" opacity="0.91" />
  <circle cx="256" cy="72" r="1.72" fill="#2c2c28" opacity="0.72" />
  <circle cx="260" cy="72" r="1.60" fill="#2c2c28" opacity="0.73" />
  <circle cx="80" cy="76" r="1.30" fill="#b8896a" opacity="0.97" />
  <circle cx="92" cy="76" r="1.58" fill="#2c2c28" opacity="0.93" />
  <circle cx="108" cy="76" r="1.89" fill="#2c2c28" opacity="0.86" />
  <circle cx="120" cy="76" r="1.42" fill="#2c2c28" opacity="0.96" />
  <circle cx="136" cy="76" r="1.52" fill="#2c2c28" opacity="0.71" />
  <circle cx="140" cy="76" r="0.65" fill="#2c2c28" opacity="0.91" />
  <circle cx="148" cy="76" r="1.20" fill="#2c2c28" opacity="0.82" />
  <circle cx="160" cy="76" r="0.88" fill="#2c2c28" opacity="0.84" />
  <circle cx="164" cy="76" r="1.39" fill="#2c2c28" opacity="0.77" />
  <circle cx="168" cy="76" r="1.42" fill="#b8896a" opacity="0.88" />
  <circle cx="180" cy="76" r="0.52" fill="#2c2c28" opacity="0.80" />
  <circle cx="188" cy="76" r="0.61" fill="#2c2c28" opacity="0.83" />
  <circle cx="204" cy="76" r="0.91" fill="#2c2c28" opacity="0.92" />
  <circle cx="208" cy="76" r="1.76" fill="#2c2c28" opacity="0.65" />
  <circle cx="220" cy="76" r="1.93" fill="#2c2c28" opacity="0.83" />
  <circle cx="232" cy="76" r="1.45" fill="#2c2c28" opacity="0.68" />
  <circle cx="248" cy="76" r="1.00" fill="#2c2c28" opacity="0.71" />
  <circle cx="260" cy="76" r="1.63" fill="#2c2c28" opacity="0.90" />
  <circle cx="80" cy="80" r="0.85" fill="#2c2c28" opacity="0.74" />
  <circle cx="84" cy="80" r="1.46" fill="#2c2c28" opacity="0.84" />
  <circle cx="88" cy="80" r="1.55" fill="#2c2c28" opacity="0.67" />
  <circle cx="92" cy="80" r="0.75" fill="#2c2c28" opacity="0.70" />
  <circle cx="104" cy="80" r="1.67" fill="#2c2c28" opacity="0.85" />
  <circle cx="120" cy="80" r="0.77" fill="#2c2c28" opacity="0.88" />
  <circle cx="124" cy="80" r="0.59" fill="#b8896a" opacity="0.78" />
  <circle cx="136" cy="80" r="1.40" fill="#2c2c28" opacity="0.87" />
  <circle cx="148" cy="80" r="1.28" fill="#2c2c28" opacity="0.85" />
  <circle cx="160" cy="80" r="1.22" fill="#b8896a" opacity="0.94" />
  <circle cx="168" cy="80" r="1.94" fill="#b8896a" opacity="0.66" />
  <circle cx="180" cy="80" r="1.62" fill="#2c2c28" opacity="0.94" />
  <circle cx="188" cy="80" r="1.84" fill="#2c2c28" opacity="0.77" />
  <circle cx="204" cy="80" r="0.52" fill="#2c2c28" opacity="0.72" />
  <circle cx="220" cy="80" r="1.92" fill="#2c2c28" opacity="0.73" />
  <circle cx="232" cy="80" r="0.63" fill="#2c2c28" opacity="0.91" />
  <circle cx="248" cy="80" r="1.76" fill="#2c2c28" opacity="0.93" />
  <circle cx="260" cy="80" r="1.76" fill="#2c2c28" opacity="0.83" />
  <circle cx="264" cy="80" r="1.59" fill="#2c2c28" opacity="0.68" />
  <circle cx="80" cy="84" r="1.20" fill="#b8896a" opacity="0.97" />
  <circle cx="92" cy="84" r="0.59" fill="#2c2c28" opacity="0.67" />
  <circle cx="104" cy="84" r="1.85" fill="#2c2c28" opacity="0.72" />
  <circle cx="120" cy="84" r="1.97" fill="#b8896a" opacity="0.98" />
  <circle cx="124" cy="84" r="1.95" fill="#2c2c28" opacity="0.95" />
  <circle cx="132" cy="84" r="1.54" fill="#2c2c28" opacity="0.69" />
  <circle cx="136" cy="84" r="0.67" fill="#2c2c28" opacity="0.92" />
  <circle cx="160" cy="84" r="1.67" fill="#2c2c28" opacity="0.66" />
  <circle cx="168" cy="84" r="1.09" fill="#2c2c28" opacity="0.98" />
  <circle cx="172" cy="84" r="1.05" fill="#2c2c28" opacity="0.78" />
  <circle cx="176" cy="84" r="0.93" fill="#2c2c28" opacity="0.79" />
  <circle cx="188" cy="84" r="1.11" fill="#2c2c28" opacity="0.96" />
  <circle cx="204" cy="84" r="1.71" fill="#2c2c28" opacity="0.95" />
  <circle cx="208" cy="84" r="0.89" fill="#2c2c28" opacity="1.00" />
  <circle cx="212" cy="84" r="1.08" fill="#2c2c28" opacity="0.67" />
  <circle cx="216" cy="84" r="1.79" fill="#2c2c28" opacity="0.90" />
  <circle cx="220" cy="84" r="0.79" fill="#2c2c28" opacity="0.94" />
  <circle cx="232" cy="84" r="1.79" fill="#2c2c28" opacity="0.90" />
  <circle cx="252" cy="84" r="1.92" fill="#2c2c28" opacity="0.89" />
  <circle cx="256" cy="84" r="1.65" fill="#2c2c28" opacity="0.73" />
  <circle cx="260" cy="84" r="1.85" fill="#2c2c28" opacity="0.71" />
  <circle cx="264" cy="84" r="1.87" fill="#2c2c28" opacity="0.71" />
  <circle cx="80" cy="88" r="0.66" fill="#2c2c28" opacity="0.67" />
  <circle cx="100" cy="88" r="1.84" fill="#2c2c28" opacity="0.67" />
  <circle cx="104" cy="88" r="1.07" fill="#2c2c28" opacity="0.95" />
  <circle cx="120" cy="88" r="1.23" fill="#2c2c28" opacity="0.67" />
  <circle cx="124" cy="88" r="1.15" fill="#2c2c28" opacity="0.90" />
  <circle cx="132" cy="88" r="1.13" fill="#b8896a" opacity="0.88" />
  <circle cx="136" cy="88" r="0.84" fill="#b8896a" opacity="0.95" />
  <circle cx="160" cy="88" r="0.74" fill="#2c2c28" opacity="0.68" />
  <circle cx="172" cy="88" r="0.73" fill="#b8896a" opacity="0.71" />
  <circle cx="176" cy="88" r="0.51" fill="#2c2c28" opacity="0.81" />
  <circle cx="188" cy="88" r="1.24" fill="#2c2c28" opacity="0.65" />
  <circle cx="204" cy="88" r="1.02" fill="#2c2c28" opacity="0.72" />
  <circle cx="232" cy="88" r="1.01" fill="#2c2c28" opacity="0.95" />
  <circle cx="248" cy="88" r="1.74" fill="#2c2c28" opacity="0.80" />
  <circle cx="260" cy="88" r="1.06" fill="#2c2c28" opacity="0.74" />
  <circle cx="264" cy="88" r="0.76" fill="#2c2c28" opacity="0.65" />
  <circle cx="80" cy="92" r="1.67" fill="#2c2c28" opacity="0.87" />
  <circle cx="104" cy="92" r="0.94" fill="#2c2c28" opacity="0.81" />
  <circle cx="120" cy="92" r="1.61" fill="#b8896a" opacity="0.98" />
  <circle cx="132" cy="92" r="1.34" fill="#b8896a" opacity="0.73" />
  <circle cx="160" cy="92" r="1.22" fill="#2c2c28" opacity="0.90" />
  <circle cx="172" cy="92" r="1.45" fill="#b8896a" opacity="0.76" />
  <circle cx="188" cy="92" r="1.86" fill="#2c2c28" opacity="0.86" />
  <circle cx="204" cy="92" r="0.72" fill="#2c2c28" opacity="0.81" />
  <circle cx="208" cy="92" r="1.58" fill="#2c2c28" opacity="0.69" />
  <circle cx="232" cy="92" r="0.54" fill="#2c2c28" opacity="0.82" />
  <circle cx="248" cy="92" r="0.70" fill="#2c2c28" opacity="0.65" />
  <circle cx="260" cy="92" r="1.52" fill="#2c2c28" opacity="0.78" />
  <circle cx="264" cy="92" r="1.27" fill="#2c2c28" opacity="0.76" />
  <circle cx="72" cy="96" r="1.36" fill="#b8896a" opacity="0.92" />
  <circle cx="76" cy="96" r="1.54" fill="#2c2c28" opacity="0.86" />
  <circle cx="80" cy="96" r="1.67" fill="#2c2c28" opacity="1.00" />
  <circle cx="84" cy="96" r="0.78" fill="#b8896a" opacity="0.70" />
  <circle cx="104" cy="96" r="1.81" fill="#2c2c28" opacity="0.91" />
  <circle cx="108" cy="96" r="1.72" fill="#2c2c28" opacity="0.90" />
  <circle cx="112" cy="96" r="1.50" fill="#b8896a" opacity="0.87" />
  <circle cx="116" cy="96" r="0.54" fill="#b8896a" opacity="0.82" />
  <circle cx="132" cy="96" r="0.71" fill="#b8896a" opacity="0.88" />
  <circle cx="152" cy="96" r="1.83" fill="#b8896a" opacity="0.74" />
  <circle cx="156" cy="96" r="0.64" fill="#2c2c28" opacity="0.80" />
  <circle cx="160" cy="96" r="1.09" fill="#2c2c28" opacity="0.93" />
  <circle cx="164" cy="96" r="1.24" fill="#2c2c28" opacity="0.90" />
  <circle cx="172" cy="96" r="0.50" fill="#b8896a" opacity="0.95" />
  <circle cx="184" cy="96" r="1.21" fill="#b8896a" opacity="0.99" />
  <circle cx="188" cy="96" r="1.89" fill="#2c2c28" opacity="0.86" />
  <circle cx="192" cy="96" r="1.55" fill="#2c2c28" opacity="0.84" />
  <circle cx="196" cy="96" r="1.59" fill="#2c2c28" opacity="0.71" />
  <circle cx="208" cy="96" r="1.38" fill="#b8896a" opacity="0.96" />
  <circle cx="212" cy="96" r="0.66" fill="#2c2c28" opacity="0.66" />
  <circle cx="216" cy="96" r="0.75" fill="#2c2c28" opacity="0.77" />
  <circle cx="220" cy="96" r="0.64" fill="#b8896a" opacity="0.70" />
  <circle cx="232" cy="96" r="1.63" fill="#2c2c28" opacity="0.88" />
  <circle cx="236" cy="96" r="1.40" fill="#2c2c28" opacity="0.82" />
  <circle cx="240" cy="96" r="1.47" fill="#2c2c28" opacity="0.99" />
  <circle cx="248" cy="96" r="1.13" fill="#2c2c28" opacity="0.88" />
  <circle cx="252" cy="96" r="1.17" fill="#2c2c28" opacity="0.81" />
  <circle cx="256" cy="96" r="0.86" fill="#2c2c28" opacity="0.92" />
  <circle cx="260" cy="96" r="1.63" fill="#2c2c28" opacity="0.95" />
  <circle cx="264" cy="96" r="1.31" fill="#b8896a" opacity="0.78" />
  <circle cx="268" cy="96" r="1.50" fill="#2c2c28" opacity="0.69" />
</svg>