<svg width="100%" height="160" viewBox="0 0 160 200" xmlns="http://www.w3.org/2000/svg">
                        <path d="M80 12 C80 12 104 52 116 88 C126 118 122 152 102 168 C92 176 80 178 80 178 C80 178 68 176 58 168 C38 152 34 118 44 88 C56 52 80 12 80 12 Z" fill="none" stroke="#b8896a" stroke-width="1.4"></path>
                        <path d="M80 12 C80 12 104 52 116 88 C126 118 122 152 102 168 C92 176 80 178 80 178 C80 178 68 176 58 168 C38 152 34 118 44 88 C56 52 80 12 80 12 Z" fill="none" stroke="#2c2c28" stroke-width="0.5" stroke-opacity="0.25" stroke-dasharray="4 8" transform="scale(0.72) translate(22 25)"></path>
                        <circle cx="80" cy="130" r="3.5" fill="#b8896a"></circle>
                    </svg>